<?xml version="1.0" encoding="UTF-8"?>
<svg width="512px" height="512px" viewBox="0 0 512 512" version="1.1" xmlns="http://www.w3.org/2000/svg" xmlns:xlink="http://www.w3.org/1999/xlink">
    <!-- Generator: Sketch 52.4 (67378) - http://www.bohemiancoding.com/sketch -->
    <title>Artboard Copy 4</title>
    <desc>Created with Sketch.</desc>
    <defs>
        <ellipse id="path-1" cx="168" cy="447.072464" rx="35" ry="34.9275362"></ellipse>
        <filter x="-12.9%" y="-8.6%" width="125.7%" height="125.8%" filterUnits="objectBoundingBox" id="filter-2">
            <feOffset dx="0" dy="3" in="SourceAlpha" result="shadowOffsetOuter1"></feOffset>
            <feGaussianBlur stdDeviation="2.5" in="shadowOffsetOuter1" result="shadowBlurOuter1"></feGaussianBlur>
            <feColorMatrix values="0 0 0 0 0   0 0 0 0 0   0 0 0 0 0  0 0 0 0.143851902 0" type="matrix" in="shadowBlurOuter1"></feColorMatrix>
        </filter>
        <path d="M164.584059,367.700546 C178.744345,367.700546 195.911393,333.55607 209.0484,330.264011 C281.990293,311.985188 336,246.112944 336,167.652174 C336,75.060435 260.783838,1.42108547e-14 168,1.42108547e-14 C75.216162,1.42108547e-14 1.77635684e-14,75.060435 1.77635684e-14,167.652174 C1.77635684e-14,242.461287 49.0993458,305.826377 116.893758,327.406113 C133.008942,332.53576 146.76454,367.700546 164.584059,367.700546 Z" id="path-3"></path>
        <filter x="-4.0%" y="-2.0%" width="108.0%" height="107.3%" filterUnits="objectBoundingBox" id="filter-4">
            <feOffset dx="0" dy="6" in="SourceAlpha" result="shadowOffsetOuter1"></feOffset>
            <feGaussianBlur stdDeviation="3.5" in="shadowOffsetOuter1" result="shadowBlurOuter1"></feGaussianBlur>
            <feColorMatrix values="0 0 0 0 0   0 0 0 0 0   0 0 0 0 0  0 0 0 0.1171875 0" type="matrix" in="shadowBlurOuter1"></feColorMatrix>
        </filter>
    </defs>
    <g id="Artboard-Copy-4" stroke="none" stroke-width="1" fill="none" fill-rule="evenodd">
        <g id="Group" transform="translate(83.000000, 15.000000)">
            <g id="Group-9">
                <g id="Group-Copy-4">
                    <g id="Group-3">
                        <g id="Group-2"></g>
                        <g id="Oval">
                            <use fill="black" fill-opacity="1" filter="url(#filter-2)" xlink:href="#path-1"></use>
                            <use fill="#FFFFFF" fill-rule="evenodd" xlink:href="#path-1"></use>
                        </g>
                        <g id="Oval-Copy">
                            <use fill="black" fill-opacity="1" filter="url(#filter-4)" xlink:href="#path-3"></use>
                            <use fill="#FFFFFF" fill-rule="evenodd" xlink:href="#path-3"></use>
                        </g>
                    </g>
                </g>
            </g>
            <g id="ANTIQUTE" transform="translate(83.000000, 80.000000)" fill="#415371" fill-rule="nonzero">
                <path d="M167.045565,152.58871 L158.569556,152.58871 L158.569556,146.936895 C158.569556,141.686089 154.953629,137.298992 150.090121,136.034274 L150.090121,61.7620968 C154.953629,60.497379 158.569556,56.1137097 158.569556,50.8594758 L158.569556,45.2076613 L161.39375,45.2076613 C162.953226,45.2076613 164.217944,43.9429435 164.217944,42.3834677 L164.217944,33.9074597 L167.042137,33.9074597 C168.423387,33.9074597 169.602419,32.9100806 169.832056,31.5493952 C170.058266,30.1887097 169.26996,28.8622984 167.964113,28.4133065 L86.021371,0.15766129 C85.4215726,-0.0514112903 84.7772177,-0.0514112903 84.1774194,0.15766129 L2.23467742,28.4133065 C0.932258065,28.8622984 0.140524194,30.1921371 0.37016129,31.5493952 C0.599798387,32.9100806 1.77883065,33.9074597 3.15665323,33.9074597 L5.98084677,33.9074597 L5.98084677,42.3834677 C5.98084677,43.9429435 7.24556452,45.2076613 8.80504032,45.2076613 L11.6326613,45.2076613 L11.6326613,50.8594758 C11.6326613,56.1102823 15.2485887,60.497379 20.1086694,61.7620968 L20.1086694,136.034274 C15.2485887,137.298992 11.6326613,141.682661 11.6326613,146.936895 L11.6326613,152.58871 L3.15665323,152.58871 C1.59717742,152.58871 0.332459677,153.853427 0.332459677,155.412903 L0.332459677,166.716532 C0.332459677,168.276008 1.59717742,169.540726 3.15665323,169.540726 L167.048992,169.540726 C168.608468,169.540726 169.873185,168.276008 169.873185,166.716532 L169.873185,155.412903 C169.873185,153.856855 168.60504,152.58871 167.045565,152.58871 Z M104.88246,152.58871 L104.88246,146.936895 C104.88246,141.686089 101.266532,137.298992 96.4030242,136.034274 L96.4030242,61.7620968 C101.266532,60.497379 104.88246,56.1137097 104.88246,50.8594758 L104.88246,45.2076613 L119.010282,45.2076613 L119.010282,50.8594758 C119.010282,56.1102823 122.62621,60.497379 127.48629,61.7620968 L127.48629,136.034274 C122.62621,137.298992 119.010282,141.682661 119.010282,146.936895 L119.010282,152.58871 L104.88246,152.58871 Z M51.1919355,152.58871 L51.1919355,146.936895 C51.1919355,141.686089 47.5760081,137.298992 42.7125,136.034274 L42.7125,61.7620968 C47.5760081,60.497379 51.1919355,56.1137097 51.1919355,50.8594758 L51.1919355,45.2076613 L65.3197581,45.2076613 L65.3197581,50.8594758 C65.3197581,56.1102823 68.9356855,60.497379 73.7957661,61.7620968 L73.7957661,136.034274 C68.9356855,137.298992 65.3197581,141.682661 65.3197581,146.936895 L65.3197581,152.58871 L51.1919355,152.58871 Z" id="Shape"></path>
            </g>
        </g>
    </g>
</svg>