<?xml version="1.0" encoding="UTF-8"?>
<svg width="512px" height="512px" viewBox="0 0 512 512" version="1.1" xmlns="http://www.w3.org/2000/svg" xmlns:xlink="http://www.w3.org/1999/xlink">
    <!-- Generator: Sketch 52.4 (67378) - http://www.bohemiancoding.com/sketch -->
    <title>Artboard Copy 2</title>
    <desc>Created with Sketch.</desc>
    <defs>
        <ellipse id="path-1" cx="168" cy="447.072464" rx="35" ry="34.9275362"></ellipse>
        <filter x="-12.9%" y="-8.6%" width="125.7%" height="125.8%" filterUnits="objectBoundingBox" id="filter-2">
            <feOffset dx="0" dy="3" in="SourceAlpha" result="shadowOffsetOuter1"></feOffset>
            <feGaussianBlur stdDeviation="2.5" in="shadowOffsetOuter1" result="shadowBlurOuter1"></feGaussianBlur>
            <feColorMatrix values="0 0 0 0 0   0 0 0 0 0   0 0 0 0 0  0 0 0 0.143851902 0" type="matrix" in="shadowBlurOuter1"></feColorMatrix>
        </filter>
        <path d="M164.584059,367.700546 C178.744345,367.700546 195.911393,333.55607 209.0484,330.264011 C281.990293,311.985188 336,246.112944 336,167.652174 C336,75.060435 260.783838,1.42108547e-14 168,1.42108547e-14 C75.216162,1.42108547e-14 1.77635684e-14,75.060435 1.77635684e-14,167.652174 C1.77635684e-14,242.461287 49.0993458,305.826377 116.893758,327.406113 C133.008942,332.53576 146.76454,367.700546 164.584059,367.700546 Z" id="path-3"></path>
        <filter x="-4.0%" y="-2.0%" width="108.0%" height="107.3%" filterUnits="objectBoundingBox" id="filter-4">
            <feOffset dx="0" dy="6" in="SourceAlpha" result="shadowOffsetOuter1"></feOffset>
            <feGaussianBlur stdDeviation="3.5" in="shadowOffsetOuter1" result="shadowBlurOuter1"></feGaussianBlur>
            <feColorMatrix values="0 0 0 0 0   0 0 0 0 0   0 0 0 0 0  0 0 0 0.1171875 0" type="matrix" in="shadowBlurOuter1"></feColorMatrix>
        </filter>
    </defs>
    <g id="Artboard-Copy-2" stroke="none" stroke-width="1" fill="none" fill-rule="evenodd">
        <g id="Group" transform="translate(83.000000, 15.000000)">
            <g id="Group-9">
                <g id="Group-Copy-4">
                    <g id="Group-3">
                        <g id="Group-2"></g>
                        <g id="Oval">
                            <use fill="black" fill-opacity="1" filter="url(#filter-2)" xlink:href="#path-1"></use>
                            <use fill="#FFFFFF" fill-rule="evenodd" xlink:href="#path-1"></use>
                        </g>
                        <g id="Oval-Copy">
                            <use fill="black" fill-opacity="1" filter="url(#filter-4)" xlink:href="#path-3"></use>
                            <use fill="#FFFFFF" fill-rule="evenodd" xlink:href="#path-3"></use>
                        </g>
                    </g>
                </g>
            </g>
            <g id="FUTUR-Copy" transform="translate(83.000000, 85.000000)" fill="#415371" fill-rule="nonzero">
                <path d="M12.1677317,83.9427695 L35.0769347,93.4487613 C33.0805124,98.7085607 31.4196808,104.088212 30.1012887,109.556897 C29.6972101,111.207433 30.1800498,112.950427 31.3751636,114.159222 L55.82192,138.643314 C57.0307314,139.841836 58.7737485,140.321245 60.4243069,139.917172 C65.8930658,138.591949 71.2727905,136.927716 76.5326613,134.924472 L86.038782,157.833364 C86.819544,159.723604 88.9803373,160.620784 90.8706034,159.840032 C91.3226236,159.655117 91.7301266,159.381169 92.0759905,159.03531 L104.787345,146.324128 C109.745869,141.355398 112.365531,134.516974 111.992272,127.507333 L111.372457,115.470747 C137.962884,95.2705147 162.587709,61.0509991 169.953583,4.7375863 C170.292598,2.48436491 168.737923,0.385239218 166.488095,0.0462287062 C166.080592,-0.0154095687 165.669665,-0.0154095687 165.262162,0.0462287062 C108.947985,7.37433472 74.7280051,31.9097925 54.4418888,58.554649 L42.49075,58.0067532 C35.4878621,57.6369236 28.6596184,60.2462772 23.6908211,65.1944609 L10.9657691,77.9398864 C9.53437194,79.3986589 9.55491832,81.7409134 11.0137106,83.1722911 C11.3458769,83.4976042 11.7396824,83.7612791 12.1677317,83.9427695 Z M106.225591,42.0047722 C112.238829,36.0292839 121.957262,36.060103 127.932831,42.0732591 C133.908401,48.0864153 133.877581,57.8047166 127.864343,63.780205 C121.878501,69.7282985 112.211433,69.7282985 106.225591,63.780205 C100.212353,57.8047166 100.181534,48.0864153 106.157103,42.0732591 C106.181074,42.0492887 106.20162,42.0253183 106.225591,42.0047722 Z M0.00770488888,165.586089 C1.3192482,141.47525 13.0204061,128.199051 19.728796,122.497511 C20.6259875,121.802368 21.9135601,121.963312 22.6087123,122.860491 C22.9511518,123.298808 23.0984008,123.860401 23.0196397,124.411721 C22.372429,128.041531 22.2662728,131.746676 22.7011709,135.40388 C23.4545379,141.588254 28.327452,146.457678 34.5084851,147.211034 C38.1931342,147.687019 41.9291492,147.608259 45.5898275,146.981603 C46.7061803,146.782991 47.7711672,147.529499 47.9697821,148.645836 C48.0759383,149.251946 47.9047186,149.878602 47.5040644,150.344313 C41.8024466,156.963579 28.5260669,168.668003 4.41490133,169.993226 C2.11028346,170.123351 0.137831901,168.363236 0.00770488888,166.058649 C-0.00256829629,165.904553 -0.00256829629,165.743609 0.00770488888,165.586089 Z" id="Shape"></path>
            </g>
        </g>
    </g>
</svg>