<?xml version="1.0" encoding="UTF-8"?>
<svg width="512px" height="512px" viewBox="0 0 512 512" version="1.1" xmlns="http://www.w3.org/2000/svg" xmlns:xlink="http://www.w3.org/1999/xlink">
    <!-- Generator: Sketch 52.4 (67378) - http://www.bohemiancoding.com/sketch -->
    <title>Artboard Copy 3</title>
    <desc>Created with Sketch.</desc>
    <defs>
        <ellipse id="path-1" cx="168" cy="447.072464" rx="35" ry="34.9275362"></ellipse>
        <filter x="-12.9%" y="-8.6%" width="125.7%" height="125.8%" filterUnits="objectBoundingBox" id="filter-2">
            <feOffset dx="0" dy="3" in="SourceAlpha" result="shadowOffsetOuter1"></feOffset>
            <feGaussianBlur stdDeviation="2.5" in="shadowOffsetOuter1" result="shadowBlurOuter1"></feGaussianBlur>
            <feColorMatrix values="0 0 0 0 0   0 0 0 0 0   0 0 0 0 0  0 0 0 0.143851902 0" type="matrix" in="shadowBlurOuter1"></feColorMatrix>
        </filter>
        <path d="M164.584059,367.700546 C178.744345,367.700546 195.911393,333.55607 209.0484,330.264011 C281.990293,311.985188 336,246.112944 336,167.652174 C336,75.060435 260.783838,1.42108547e-14 168,1.42108547e-14 C75.216162,1.42108547e-14 1.77635684e-14,75.060435 1.77635684e-14,167.652174 C1.77635684e-14,242.461287 49.0993458,305.826377 116.893758,327.406113 C133.008942,332.53576 146.76454,367.700546 164.584059,367.700546 Z" id="path-3"></path>
        <filter x="-4.0%" y="-2.0%" width="108.0%" height="107.3%" filterUnits="objectBoundingBox" id="filter-4">
            <feOffset dx="0" dy="6" in="SourceAlpha" result="shadowOffsetOuter1"></feOffset>
            <feGaussianBlur stdDeviation="3.5" in="shadowOffsetOuter1" result="shadowBlurOuter1"></feGaussianBlur>
            <feColorMatrix values="0 0 0 0 0   0 0 0 0 0   0 0 0 0 0  0 0 0 0.1171875 0" type="matrix" in="shadowBlurOuter1"></feColorMatrix>
        </filter>
    </defs>
    <g id="Artboard-Copy-3" stroke="none" stroke-width="1" fill="none" fill-rule="evenodd">
        <g id="Group" transform="translate(83.000000, 15.000000)">
            <g id="Group-9">
                <g id="Group-Copy-4">
                    <g id="Group-3">
                        <g id="Group-2"></g>
                        <g id="Oval">
                            <use fill="black" fill-opacity="1" filter="url(#filter-2)" xlink:href="#path-1"></use>
                            <use fill="#FFFFFF" fill-rule="evenodd" xlink:href="#path-1"></use>
                        </g>
                        <g id="Oval-Copy">
                            <use fill="black" fill-opacity="1" filter="url(#filter-4)" xlink:href="#path-3"></use>
                            <use fill="#FFFFFF" fill-rule="evenodd" xlink:href="#path-3"></use>
                        </g>
                    </g>
                </g>
            </g>
            <g id="MODERNE-Copy" transform="translate(83.000000, 104.000000)" fill="#415371" fill-rule="nonzero">
                <path d="M114.141897,44.1697628 L114.141897,38.1424901 C114.141897,36.3349802 112.334387,34.5274704 109.922134,34.5274704 C93.6511858,34.5274704 76.7754941,34.5274704 59.9031621,34.5274704 C57.4909091,34.5274704 56.2881423,36.3349802 56.2881423,38.1424901 L56.2881423,44.1697628 C42.426087,44.1697628 18.9250988,98.408498 18.9250988,99.0098814 L18.9250988,116.486957 C18.9250988,123.115613 22.5401186,128.541502 27.3612648,128.541502 C65.9304348,128.541502 104.499605,128.541502 143.068775,128.541502 C147.288538,128.541502 151.504941,123.118972 151.504941,116.486957 L151.504941,99.0098814 C151.504941,98.408498 128.000593,44.1697628 114.141897,44.1697628 Z M167.174506,24.8851779 C167.174506,24.8851779 170.188142,29.1049407 169.586759,31.513834 C168.985375,33.926087 168.380632,34.5274704 165.366996,38.1424901 C162.954743,41.1561265 152.711067,54.4134387 152.711067,54.4134387 C152.711067,54.4134387 149.096047,58.0284585 144.876285,55.0148221 C140.656522,52.6025692 130.412846,44.7711462 125.5917,42.9602767 C120.770553,41.7541502 118.963043,39.9466403 118.3583,36.933004 C117.756917,33.9193676 116.550791,15.8409091 116.550791,15.8409091 C108.716008,14.0333992 61.1059289,14.0333992 53.8758893,15.8409091 C53.8758893,15.8409091 52.0683794,33.9193676 51.4636364,36.933004 C50.8588933,39.9466403 49.0513834,41.7541502 44.2302372,42.9602767 C39.4090909,44.7677866 29.165415,52.6025692 24.9456522,55.0148221 C21.3306324,58.0284585 17.1108696,54.4134387 17.1108696,54.4134387 C17.1108696,54.4134387 6.86719368,41.1561265 4.45494071,38.1424901 C2.04940711,34.5274704 0.843280632,33.926087 0.238537549,31.513834 C-0.36284585,29.101581 3.25217391,24.8851779 3.25217391,24.8851779 C36.3988142,-8.25810277 133.426482,-8.25810277 167.174506,24.8851779 Z M85.2150198,58.0318182 C98.472332,58.0318182 108.719368,64.6604743 108.719368,72.4952569 C108.719368,80.3300395 98.4756917,86.9586957 85.2150198,86.9586957 C71.9543478,86.9586957 61.1092885,80.3300395 61.1092885,72.4952569 C61.1092885,64.6604743 71.9543478,58.0318182 85.2150198,58.0318182 Z" id="Shape"></path>
            </g>
        </g>
    </g>
</svg>