<?xml version="1.0" encoding="UTF-8"?>
<svg width="512px" height="512px" viewBox="0 0 512 512" version="1.1" xmlns="http://www.w3.org/2000/svg" xmlns:xlink="http://www.w3.org/1999/xlink">
    <!-- Generator: Sketch 52.4 (67378) - http://www.bohemiancoding.com/sketch -->
    <title>Artboard Copy 8</title>
    <desc>Created with Sketch.</desc>
    <defs>
        <ellipse id="path-1" cx="168" cy="447.072464" rx="35" ry="34.9275362"></ellipse>
        <filter x="-12.9%" y="-8.6%" width="125.7%" height="125.8%" filterUnits="objectBoundingBox" id="filter-2">
            <feOffset dx="0" dy="3" in="SourceAlpha" result="shadowOffsetOuter1"></feOffset>
            <feGaussianBlur stdDeviation="2.5" in="shadowOffsetOuter1" result="shadowBlurOuter1"></feGaussianBlur>
            <feColorMatrix values="0 0 0 0 0   0 0 0 0 0   0 0 0 0 0  0 0 0 0.143851902 0" type="matrix" in="shadowBlurOuter1"></feColorMatrix>
        </filter>
        <path d="M164.584059,367.700546 C178.744345,367.700546 195.911393,333.55607 209.0484,330.264011 C281.990293,311.985188 336,246.112944 336,167.652174 C336,75.060435 260.783838,1.42108547e-14 168,1.42108547e-14 C75.216162,1.42108547e-14 1.77635684e-14,75.060435 1.77635684e-14,167.652174 C1.77635684e-14,242.461287 49.0993458,305.826377 116.893758,327.406113 C133.008942,332.53576 146.76454,367.700546 164.584059,367.700546 Z" id="path-3"></path>
        <filter x="-4.0%" y="-2.0%" width="108.0%" height="107.3%" filterUnits="objectBoundingBox" id="filter-4">
            <feOffset dx="0" dy="6" in="SourceAlpha" result="shadowOffsetOuter1"></feOffset>
            <feGaussianBlur stdDeviation="3.5" in="shadowOffsetOuter1" result="shadowBlurOuter1"></feGaussianBlur>
            <feColorMatrix values="0 0 0 0 0   0 0 0 0 0   0 0 0 0 0  0 0 0 0.1171875 0" type="matrix" in="shadowBlurOuter1"></feColorMatrix>
        </filter>
    </defs>
    <g id="Artboard-Copy-8" stroke="none" stroke-width="1" fill="none" fill-rule="evenodd">
        <g id="Group" transform="translate(83.000000, 15.000000)">
            <g id="Group-9">
                <g id="Group-Copy-4">
                    <g id="Group-3">
                        <g id="Group-2"></g>
                        <g id="Oval">
                            <use fill="black" fill-opacity="1" filter="url(#filter-2)" xlink:href="#path-1"></use>
                            <use fill="#FFFFFF" fill-rule="evenodd" xlink:href="#path-1"></use>
                        </g>
                        <g id="Oval-Copy">
                            <use fill="black" fill-opacity="1" filter="url(#filter-4)" xlink:href="#path-3"></use>
                            <use fill="#FFFFFF" fill-rule="evenodd" xlink:href="#path-3"></use>
                        </g>
                    </g>
                </g>
            </g>
            <g id="MOYENAGE-Copy" transform="translate(81.000000, 101.000000)" fill="#415371" fill-rule="nonzero">
                <path d="M172.426202,0.181039073 L163.953257,0.181039073 C162.478468,0.181039073 161.375922,1.28857223 161.375922,2.76173331 L161.375922,13.8299653 L154.927266,13.8299653 L154.927266,2.7652831 C154.927266,1.28857223 153.821174,0.184588859 152.349931,0.184588859 L143.876986,0.184588859 C142.402197,0.184588859 141.299651,1.29212201 141.299651,2.7652831 L141.299651,13.833515 L134.850995,13.833515 L134.850995,2.7652831 C134.850995,1.28857223 133.744904,0.184588859 132.27366,0.184588859 L123.800715,0.184588859 C122.325926,0.184588859 121.22338,1.29212201 121.22338,2.7652831 L121.22338,59.0258374 L114.774724,59.0258374 L114.774724,47.9576054 C114.774724,46.4808945 113.668633,45.3769112 112.197389,45.3769112 L103.724444,45.3769112 C102.249656,45.3769112 101.147109,46.4844443 101.147109,47.9576054 L101.147109,59.0258374 L94.6984538,59.0258374 L94.6984538,47.9576054 C94.6984538,46.4808945 93.5923622,45.3769112 92.1211186,45.3769112 L83.6481737,45.3769112 C82.173385,45.3769112 81.0708386,46.4844443 81.0708386,47.9576054 L81.0708386,59.0258374 L74.6044572,59.0258374 L74.6044572,47.9576054 C74.6044572,46.4808945 73.4983657,45.3769112 72.0271221,45.3769112 L63.5541772,45.3769112 C62.0793884,45.3769112 60.976842,46.4844443 60.976842,47.9576054 L60.976842,59.0258374 L54.5281865,59.0258374 L54.5281865,2.58069424 C54.5281865,1.10398337 53.4220949,0 51.9508514,0 L43.4779064,0 C42.0031177,0 40.9005713,1.10753315 40.9005713,2.58069424 L40.9005713,13.6489262 L34.4519158,13.6489262 L34.4519158,2.58069424 C34.4519158,1.10398337 33.3458242,0 31.8745806,0 L23.4016357,0 C21.926847,0 20.8243006,1.10753315 20.8243006,2.58069424 L20.8243006,13.6489262 L13.6276152,13.6489262 L13.6276152,2.58069424 C13.6276152,1.10398337 12.5215236,0 11.05028,0 L2.57733513,0 C1.10254639,0 0,1.10753315 0,2.58069424 L0,137.419306 C0,138.896017 1.10609155,140 2.57733513,140 L66.1315123,140 C67.606301,140 68.7088474,138.892467 68.7088474,137.419306 L68.7088474,112.33297 C68.7088474,102.372271 76.2600494,93.7036943 86.2113282,92.9653389 C91.9225894,92.5961612 97.0808048,94.8112275 100.764231,98.4994549 C104.078961,102.003093 106.291144,106.614265 106.291144,111.779203 L106.291144,137.419306 C106.291144,138.896017 107.397236,140 108.868479,140 L172.422656,140 C173.897445,140 174.999992,138.892467 174.999992,137.419306 L174.999992,2.58069424 C175.003537,1.28857223 173.897445,0.181039073 172.426202,0.181039073 Z M36.4726599,91.1194503 C36.4726599,92.5961612 35.3665684,93.7001445 33.8953248,93.7001445 L20.2606193,93.7001445 C18.7858306,93.7001445 17.6832842,92.5926114 17.6832842,91.1194503 L17.6832842,72.6747636 C17.6832842,67.5098253 21.9197566,63.2678313 27.0779721,63.2678313 C29.6553072,63.2678313 32.0518389,64.3753645 33.7109762,66.0331144 C35.3701136,67.6908644 36.4726599,70.0905195 36.4726599,72.6747636 L36.4726599,91.1194503 Z M157.501056,91.1194503 C157.501056,92.5961612 156.394964,93.7001445 154.923721,93.7001445 L141.29256,93.7001445 C139.817772,93.7001445 138.715225,92.5926114 138.715225,91.1194503 L138.715225,72.6747636 C138.715225,67.5098253 142.951698,63.2678313 148.109913,63.2678313 C150.687248,63.2678313 153.08378,64.3753645 154.742917,66.0331144 C156.402055,67.6944142 157.504601,70.0905195 157.504601,72.6747636 L157.501056,91.1194503 Z" id="Shape"></path>
            </g>
        </g>
    </g>
</svg>