<?xml version="1.0" encoding="UTF-8"?>
<svg width="512px" height="512px" viewBox="0 0 512 512" version="1.1" xmlns="http://www.w3.org/2000/svg" xmlns:xlink="http://www.w3.org/1999/xlink">
    <!-- Generator: Sketch 52.4 (67378) - http://www.bohemiancoding.com/sketch -->
    <title>Artboard Copy 5</title>
    <desc>Created with Sketch.</desc>
    <defs>
        <ellipse id="path-1" cx="168" cy="447.072464" rx="35" ry="34.9275362"></ellipse>
        <filter x="-12.9%" y="-8.6%" width="125.7%" height="125.8%" filterUnits="objectBoundingBox" id="filter-2">
            <feOffset dx="0" dy="3" in="SourceAlpha" result="shadowOffsetOuter1"></feOffset>
            <feGaussianBlur stdDeviation="2.5" in="shadowOffsetOuter1" result="shadowBlurOuter1"></feGaussianBlur>
            <feColorMatrix values="0 0 0 0 0   0 0 0 0 0   0 0 0 0 0  0 0 0 0.143851902 0" type="matrix" in="shadowBlurOuter1"></feColorMatrix>
        </filter>
        <path d="M164.584059,367.700546 C178.744345,367.700546 195.911393,333.55607 209.0484,330.264011 C281.990293,311.985188 336,246.112944 336,167.652174 C336,75.060435 260.783838,1.42108547e-14 168,1.42108547e-14 C75.216162,1.42108547e-14 1.77635684e-14,75.060435 1.77635684e-14,167.652174 C1.77635684e-14,242.461287 49.0993458,305.826377 116.893758,327.406113 C133.008942,332.53576 146.76454,367.700546 164.584059,367.700546 Z" id="path-3"></path>
        <filter x="-4.0%" y="-2.0%" width="108.0%" height="107.3%" filterUnits="objectBoundingBox" id="filter-4">
            <feOffset dx="0" dy="6" in="SourceAlpha" result="shadowOffsetOuter1"></feOffset>
            <feGaussianBlur stdDeviation="3.5" in="shadowOffsetOuter1" result="shadowBlurOuter1"></feGaussianBlur>
            <feColorMatrix values="0 0 0 0 0   0 0 0 0 0   0 0 0 0 0  0 0 0 0.1171875 0" type="matrix" in="shadowBlurOuter1"></feColorMatrix>
        </filter>
    </defs>
    <g id="Artboard-Copy-5" stroke="none" stroke-width="1" fill="none" fill-rule="evenodd">
        <g id="Group" transform="translate(83.000000, 15.000000)">
            <g id="Group-9">
                <g id="Group-Copy-4">
                    <g id="Group-3">
                        <g id="Group-2"></g>
                        <g id="Oval">
                            <use fill="black" fill-opacity="1" filter="url(#filter-2)" xlink:href="#path-1"></use>
                            <use fill="#FFFFFF" fill-rule="evenodd" xlink:href="#path-1"></use>
                        </g>
                        <g id="Oval-Copy">
                            <use fill="black" fill-opacity="1" filter="url(#filter-4)" xlink:href="#path-3"></use>
                            <use fill="#FFFFFF" fill-rule="evenodd" xlink:href="#path-3"></use>
                        </g>
                    </g>
                </g>
            </g>
            <g id="RENAISSANCE" transform="translate(108.000000, 78.000000)" fill="#415371" fill-rule="nonzero">
                <path d="M120.691932,120.656891 L120.691932,0 L0.0350407235,0 L0.0350407235,120.656891 L32.3620548,120.656891 L23.714783,142.483368 L15.0675111,142.483368 C11.980034,142.483368 9.71406723,144.955686 9.71406723,147.836812 C9.71406723,150.717938 12.1863849,153.190256 15.0675111,153.190256 L19.1867428,153.190256 L5.18602707,187.985695 C3.95181492,190.66047 5.392378,193.958191 8.27350415,194.986052 C8.89255693,195.192403 9.5077163,195.398754 10.33312,195.398754 C12.3927359,195.398754 14.4523517,194.164542 15.273862,191.898575 L30.9214917,153.396607 L91.2499373,153.396607 L106.691216,192.311277 C107.51662,194.370893 109.572342,195.811456 111.631958,195.811456 C112.251011,195.811456 112.86617,195.605105 113.691574,195.398754 C116.366349,194.370893 117.810806,191.279523 116.5727,188.398396 L102.778335,153.396607 L107.103918,153.396607 C110.191395,153.396607 112.457362,150.924289 112.457362,148.043163 C112.457362,145.162037 109.985044,142.689719 107.103918,142.689719 L98.4566461,142.689719 L89.8093742,120.863242 L120.695825,120.863242 L120.695825,120.656891 L120.691932,120.656891 Z M10.1228757,10.0878349 L110.806554,10.0878349 L110.806554,110.771514 L10.1228757,110.771514 L10.1228757,10.0878349 Z M43.8904528,120.656891 L55.6252018,120.656891 L55.6252018,142.483368 L35.2392876,142.483368 L43.8904528,120.656891 Z M86.9243547,142.483368 L66.5384404,142.483368 L66.5384404,120.656891 L78.2731894,120.656891 L86.9243547,142.483368 Z" id="Shape"></path>
                <path d="M15.4763195,85.8614527 L28.655525,73.0949491 C33.1835651,68.566909 40.5966248,68.566909 45.1285584,73.0949491 L55.6290952,83.1827841 L76.8365197,58.0624788 C81.3645599,52.9153858 89.3966724,52.9153858 94.1310635,58.0624788 L105.044302,70.4162805 L105.044302,15.4412788 L15.4763195,15.4412788 L15.4763195,85.8614527 Z M38.7433599,26.5608684 C45.3310159,26.5608684 50.8908107,31.9143122 50.8908107,38.7083192 C50.8908107,45.2959752 45.5373668,50.85577 38.7433599,50.85577 C31.949353,50.85577 26.5959091,45.5023261 26.5959091,38.7083192 C26.5959091,31.9143122 31.949353,26.5608684 38.7433599,26.5608684 Z" id="Shape"></path>
            </g>
        </g>
    </g>
</svg>