<?xml version="1.0" encoding="utf-8"?>
<!-- Generator: Adobe Illustrator 22.1.0, SVG Export Plug-In . SVG Version: 6.00 Build 0)  -->
<svg version="1.1" id="Calque_1" xmlns="http://www.w3.org/2000/svg" xmlns:xlink="http://www.w3.org/1999/xlink" x="0px" y="0px"
	 viewBox="0 0 189.7 275" style="enable-background:new 0 0 189.7 275;" xml:space="preserve">
<style type="text/css">
	.st0{fill:none;stroke:#FFFFFF;stroke-width:5.5021;stroke-linecap:round;stroke-linejoin:round;stroke-miterlimit:10;}
</style>
<g>
	<path class="st0" d="M119.2,183.3l29,0.2c1.9,0,3.4-1.5,3.4-3.4l-0.1-26.8c0-1.8-1.5-3.3-3.3-3.4l-25-0.2c-1.9,0-3.5-1.6-3.4-3.5
		l0-24.8c0-2.2,1.7-3.9,3.9-3.9l43.8-0.3c2.3,0,4.2-1.9,4.2-4.2V91.4c0-2.4-1.9-4.3-4.3-4.3c-18.8,0.1-93.6,0.4-125.1,0.6
		c-39,0.3-41.8-47.4,0-46.5c-0.5-41.7,47.2-39.4,47.2,0"/>
	<path class="st0" d="M50,145.6v100.3c0,2.3,1.8,4.1,4.1,4.1h30.4c2.2,0,3.9-1.8,3.9-3.9l0.9-204.8"/>
</g>
</svg>
