<?xml version="1.0" encoding="utf-8"?>
<!-- Generator: Adobe Illustrator 22.1.0, SVG Export Plug-In . SVG Version: 6.00 Build 0)  -->
<svg version="1.1" id="Calque_1" xmlns="http://www.w3.org/2000/svg" xmlns:xlink="http://www.w3.org/1999/xlink" x="0px" y="0px"
	 viewBox="0 0 512 512" style="enable-background:new 0 0 512 512;" xml:space="preserve">
<style type="text/css">
	.st0{fill:#010101;}
</style>
<path class="st0" d="M459.7,71.4c-27.6-25.1-68.1-36.5-107-30c-39.7,5.7-73,29.2-96.5,64.9c-23.5-35.7-56.8-59.2-95.7-65.7	c-39.7-6.5-80.3,4.9-107.8,30.8C17.8,103,4.8,157.3,17.8,220.6c0.8,4.1,4.1,6.5,8.1,6.5h0.8c2.4,0,4.1-0.8,5.7-2.4l28.4-28.4 c0.8,0,0.8-0.8,0.8-1.6c3.2-2.4,6.5-3.2,10.5-3.2s8.1,1.6,10.5,4.9c3.2,3.2,4.9,7.3,4.9,12.2c0,4.1-1.6,8.1-4.9,10.5 c-0.8,0.8-1.6,1.6-2.4,3.2l-43,43.8c-3.2,3.2-3.2,8.1,0,11.4c1.6,1.6,3.2,2.4,5.7,2.4c2.4,0,4.1-0.8,5.7-2.4l46.2-47l28.4-28.4 c3.2-3.2,7.3-4.9,12.2-4.9c4.1,0,8.1,1.6,10.5,4.9c3.2,3.2,4.9,7.3,4.9,12.2c0,4.1-1.6,8.1-4.9,10.5c-0.8,0.8-1.6,1.6-1.6,3.2 l-8.9,9.7l-75.4,74.6c-3.2,3.2-3.2,8.1,0,11.4c1.6,1.6,4.1,2.4,5.7,2.4c2.4,0,4.1-0.8,5.7-2.4l75.4-74.6c6.5-6.5,17-5.7,22.7,0 c3.2,3.2,4.9,7.3,4.9,12.2c0,4.1-1.6,8.1-4.9,10.5l-17,17l-63.2,63.2c-3.2,3.2-3.2,8.1,0,11.4c1.6,1.6,4.1,2.4,5.7,2.4 c1.6,0,4.1-0.8,5.7-2.4l63.2-63.2c4.1-4.1,10.5-5.7,15.4-4.1c5.7,1.6,10.5,6.5,11.4,11.4c1.6,5.7,0,11.4-4.1,15.4 c-0.8,0.8-1.6,1.6-1.6,2.4l-61.6,61.6c-3.2,3.2-3.2,8.1,0,11.4c0.8,0.8,2.4,1.6,4.1,2.4c37.3,34.1,77.8,64.1,124.9,92.4 c0.8,0,2.4,0,4.1,0c1.6,0,3.2,0,4.1-0.8c47.8-29.2,90-60,128.1-94.9l0.8-0.8c0-0.8,0.8-0.8,0.8-1.6c0-0.8,0-0.8,0-1.6 c0-0.8,0-0.8,0-1.6c0-0.8,0-0.8,0-1.6c0-0.8,0-0.8,0-1.6c0-0.8-0.8-0.8-0.8-1.6c0-0.8-0.8-0.8-0.8-1.6l-62.4-62.4
	c-4.1-4.1-5.7-10.5-4.1-15.4c1.6-5.7,6.5-10.5,11.4-11.4c5.7-1.6,11.4,0,15.4,4.1c0.8,0.8,1.6,1.6,2.4,1.6l60,60.8
	c1.6,1.6,4.1,2.4,5.7,2.4c2.4,0,4.1-0.8,5.7-2.4c3.2-3.2,3.2-8.1,0-11.4l-62.4-63.2l-17-17c-6.5-6.5-5.7-17,0-22.7
	c3.2-3.2,7.3-4.9,12.2-4.9c4.1,0,8.1,1.6,10.5,4.1l75.4,74.6c1.6,1.6,3.2,2.4,5.7,2.4s4.1-0.8,5.7-2.4c3.2-3.2,3.2-8.1,0-11.4
	L377,236l-11.4-12.2c0-0.8-0.8-0.8-1.6-0.8c-4.9-6.5-4.1-15.4,1.6-21.1c6.5-6.5,14.6-6.5,21.9-1.6c0,0.8,0.8,0.8,0.8,1.6l25.1,25.1
	c0.8,0.8,0.8,1.6,1.6,2.4l0.8,0.8c0.8,0.8,1.6,1.6,2.4,1.6l44.6,44.6c1.6,1.6,4.1,2.4,5.7,2.4c1.6,0,4.1-0.8,5.7-2.4
	c3.2-3.2,3.2-8.1,0-11.4l-49.5-49.5c-4.1-6.5-2.4-14.6,3.2-20.3c7.3-7.3,17-4.9,22.7,0c0.8,0.8,1.6,0.8,2.4,1.6l26.8,26.8
	c0,0,0,0,0.8,0c0.8,0,0.8,0.8,1.6,0.8c0.8,0,0.8,0.8,1.6,0.8h0.8c0.8,0,0.8,0,1.6,0c0.8,0,1.6,0,3.2-0.8c0,0,0.8,0,0.8-0.8
	c0.8,0,1.6-0.8,1.6-0.8v-0.8c0.8-0.8,0.8-0.8,0.8-1.6c0.8,1.6,0.8,0.8,0.8,0.8C507.5,157.3,494.5,103,459.7,71.4z"/>
</svg>
