<svg xmlns="http://www.w3.org/2000/svg" viewBox="0 0 54.47 62.16"><defs><style>.cls-1{fill:#13110c;}</style></defs><title>Fichier 5</title><g id="Calque_2" data-name="Calque 2"><g id="Calque_1-2" data-name="Calque 1"><path class="cls-1" d="M23.39,0a31.14,31.14,0,0,0-23,10.19,1.49,1.49,0,0,0,.11,2.1l.07.06L6.31,17A22,22,0,0,0,1.18,31.08v3a1.48,1.48,0,0,0,1.48,1.48,1.36,1.36,0,0,0,.29,0l13-2.6v6.16L5,44.56a1.48,1.48,0,0,0-.82,1.32v8.53L1.34,60A1.49,1.49,0,0,0,2,62a1.55,1.55,0,0,0,.66.15c21.38,0,25.17-7.67,27.44-12.25,1-2,1.34-2.55,2.17-2.55,1.74,0,2.83,1.64,4.47,4.32,2,3.35,4.61,7.52,10.33,7.52a1.48,1.48,0,0,0,1.48-1.48,1.53,1.53,0,0,0-.16-.66c-2.61-5.22-2.79-17.49-2.8-24.5H53a1.48,1.48,0,0,0,1.48-1.48h0A31.12,31.12,0,0,0,23.39,0Z"/></g></g></svg>