<svg xmlns="http://www.w3.org/2000/svg" viewBox="0 0 53.34 53.34"><defs><style>.cls-1{fill:#13110c;}</style></defs><title>Fichier 16</title><g id="Calque_2" data-name="Calque 2"><g id="Calque_1-2" data-name="Calque 1"><path class="cls-1" d="M26.67,0A26.67,26.67,0,1,0,53.34,26.67,26.67,26.67,0,0,0,26.67,0Zm0,42.51A15.86,15.86,0,0,1,10.82,26.67a.54.54,0,0,1,1.07,0A14.8,14.8,0,0,0,26.67,41.45a.53.53,0,1,1,0,1.06Zm0-8.44a7.4,7.4,0,1,1,7.4-7.4A7.4,7.4,0,0,1,26.67,34.07Zm17-6.87a.54.54,0,0,1-.54-.53,16.52,16.52,0,0,0-16.5-16.51.53.53,0,0,1-.53-.53.53.53,0,0,1,.53-.53A17.59,17.59,0,0,1,44.24,26.67.53.53,0,0,1,43.71,27.2Zm3.58,0a.53.53,0,0,1-.53-.53A20.11,20.11,0,0,0,26.67,6.58a.54.54,0,0,1,0-1.07A21.18,21.18,0,0,1,47.82,26.67.53.53,0,0,1,47.29,27.2Z"/><circle class="cls-1" cx="26.67" cy="26.67" r="0.92"/></g></g></svg>