<svg xmlns="http://www.w3.org/2000/svg" viewBox="0 0 57.08 46.13"><defs><style>.cls-1{fill:none;}.cls-2{fill:#13110c;}</style></defs><title>Fichier 14</title><g id="Calque_2" data-name="Calque 2"><g id="Calque_1-2" data-name="Calque 1"><path class="cls-1" d="M45.9,12.47h6.2L44.61,5v6.21A1.29,1.29,0,0,0,45.9,12.47Z"/><path class="cls-1" d="M3,21,9.05,41.71a2.1,2.1,0,0,0,2,1.52h0a2.09,2.09,0,0,0,2.06-2.11V16.5L3.85,19.34A1.31,1.31,0,0,0,3,21Z"/><path class="cls-2" d="M55.55,11.82,45.28,1.52A5.17,5.17,0,0,0,41.6,0H17.18a4,4,0,0,0-4,4v9.42L3,16.55A4.24,4.24,0,0,0,.17,21.79L6.26,42.54a5,5,0,0,0,4.66,3.59H52.06a5,5,0,0,0,5-5V15.5A5.18,5.18,0,0,0,55.55,11.82ZM13.16,41.12a2.09,2.09,0,0,1-2.06,2.11h0a2.1,2.1,0,0,1-2-1.52L3,21a1.31,1.31,0,0,1,.88-1.62l9.31-2.84ZM44.61,5l7.49,7.5H45.9a1.29,1.29,0,0,1-1.29-1.29Z"/></g></g></svg>