<svg xmlns="http://www.w3.org/2000/svg" viewBox="0 0 54.89 55.32"><defs><style>.cls-1{fill:#13110c;}</style></defs><title>Fichier 11</title><g id="Calque_2" data-name="Calque 2"><g id="Calque_1-2" data-name="Calque 1"><path class="cls-1" d="M18.24,49.64c4.47,0,7.94-4.1,8.08-4.28a1.32,1.32,0,0,0,0-1.71c-.14-.17-3.61-4.28-8.08-4.28-.15,0-.29,0-.43,0l7.89-7.89a19.1,19.1,0,0,0,25.85-1.06,19.16,19.16,0,0,0,3.17-4.2,1.31,1.31,0,0,0,0-1.3,19,19,0,0,0-6-6.55,19,19,0,0,0,1-6.95,19.15,19.15,0,0,0-1-5.18,1.3,1.3,0,0,0-1-.87,19.32,19.32,0,0,0-5.25-.48,19,19,0,0,0-6,1.29,19.46,19.46,0,0,0-2.36-2.87A19.16,19.16,0,0,0,30,.17a1.33,1.33,0,0,0-1.31,0,19.09,19.09,0,0,0-7.53,25.71,1.47,1.47,0,0,0,.23.31l0,.06a18.83,18.83,0,0,0,2.42,3.39l-7.87,7.87c0-.14,0-.28,0-.42,0-4.48-4.11-8-4.28-8.09A1.32,1.32,0,0,0,10,29c-.18.14-4.29,3.61-4.28,8.09,0,3.24,2.15,5.95,3.4,7.25L.39,53a1.34,1.34,0,0,0,1,2.28,1.33,1.33,0,0,0,.94-.39l8.7-8.7c1.3,1.26,4,3.41,7.25,3.41"/></g></g></svg>