<?xml version="1.0" encoding="UTF-8"?>
<svg width="40px" height="40px" viewBox="0 0 40 40" version="1.1" xmlns="http://www.w3.org/2000/svg" xmlns:xlink="http://www.w3.org/1999/xlink">
    <!-- Generator: Sketch 51.3 (57544) - http://www.bohemiancoding.com/sketch -->
    <title>Combined Shape</title>
    <desc>Created with Sketch.</desc>
    <defs></defs>
    <g id="Page-1" stroke="none" stroke-width="1" fill="none" fill-rule="evenodd">
        <g id="Ecran_1" transform="translate(-1673.000000, -61.000000)" fill="#FFFFFF">
            <g id="call" transform="translate(1525.000000, 40.000000)">
                <g id="tel" transform="translate(148.000000, 21.000000)">
                    <path d="M20,40 C8.954305,40 0,31.045695 0,20 C0,8.954305 8.954305,0 20,0 C31.045695,0 40,8.954305 40,20 C40,31.045695 31.045695,40 20,40 Z M14.098548,21.0109415 C14.7305104,21.7937161 16.9423786,24.4402395 19.2657696,26.0989761 C20.8456754,27.2172254 22.1096001,27.6458877 22.2954714,27.7018002 C22.8716723,27.9440875 23.3549377,28 23.7452673,28 C24.1727713,28 24.4515782,27.92545 24.5259267,27.8881751 C25.1764762,27.7018002 25.7155029,27.2917754 26.2173553,26.9003881 C26.8307306,26.4158134 27.3139959,25.9312387 27.7229127,25.446664 C27.9645453,25.1484641 28.057481,24.8502643 27.9645453,24.5147895 L27.9273711,24.4775145 C27.6485642,23.8252024 25.8084385,22.2410158 25.7898514,22.2223783 C25.5110445,21.9987284 25.2322376,21.7564411 24.9162564,21.5514287 C24.7675594,21.4582412 24.5816881,21.3464163 24.3772297,21.3091413 C23.9125515,21.2345914 23.6337446,21.5514287 23.4478733,21.7564411 C23.4292862,21.7750786 23.3921119,21.8123535 23.3735248,21.830991 C23.262002,21.942816 23.1318921,22.0919159 23.0017822,22.2410158 C22.7787367,22.5019406 22.3326456,23.0237903 22.1839486,23.0797028 C21.9609031,23.1169778 21.1058952,22.6137656 20.6783913,22.2596533 C19.3958794,21.1973164 18.2620647,20.0604295 17.7787993,19.352205 L17.7602122,19.3335675 C16.99814,18.2339556 16.9237915,17.8984808 16.9423786,17.8239308 C16.99814,17.6561934 17.5185795,17.2088937 17.7787993,16.9852438 C17.9274964,16.8547814 18.0761934,16.724319 18.1877161,16.612494 C18.2063033,16.5938565 18.2434775,16.5565816 18.2620647,16.5379441 C18.4665231,16.3515692 18.7825042,16.0533693 18.7081557,15.5874321 C18.6709815,15.3824197 18.5780458,15.1960448 18.4665231,15.0469449 C18.2620647,14.7301076 18.020432,14.4319078 17.7973865,14.1709829 C17.7602122,14.1709829 16.1803063,12.3258715 15.5297569,12.0463091 L15.4739955,12.0276716 C15.1580143,11.9531217 14.8420331,12.0276716 14.5446391,12.269959 C14.0613738,12.6799838 13.5781085,13.1645585 13.0948431,13.7795956 C12.6859263,14.2828079 12.2955966,14.823295 12.1097254,15.4756072 C12.053964,15.6247071 11.8123313,16.4820316 12.2955966,17.6934684 C12.3699452,17.9171183 12.778862,19.3708424 14.098548,21.0109415 Z" id="Combined-Shape"></path>
                </g>
            </g>
        </g>
    </g>
</svg>