<svg xmlns="http://www.w3.org/2000/svg" viewBox="0 0 61.69 60.65"><defs><style>.cls-1{fill:#13110c;}</style></defs><title>Fichier 1</title><g id="Calque_2" data-name="Calque 2"><g id="Calque_1-2" data-name="Calque 1"><path class="cls-1" d="M59.65,13.44H16.76L14.68,1.6A2.07,2.07,0,0,0,12.6,0H2A2,2,0,1,0,2,4h9l7.84,42.56a1.9,1.9,0,0,0,1.92,1.6H52c2.57,0,2.57-4,0-4H22.52l-1-5.12H53.08A2.24,2.24,0,0,0,55,37.6L61.57,16A1.91,1.91,0,0,0,59.65,13.44ZM38.3,31.93l-.22.12-.22-.11c-.24-.12-5.86-3-5.95-7a3.51,3.51,0,0,1,6-2.6,3.52,3.52,0,0,1,6.07,2.34C44,28.68,38.53,31.8,38.3,31.93Z"/><path class="cls-1" d="M26.2,50.88a4.89,4.89,0,0,0,0,9.77,4.89,4.89,0,1,0,0-9.77Z"/><path class="cls-1" d="M45.88,50.88a4.89,4.89,0,1,0,4.8,4.81A4.82,4.82,0,0,0,45.88,50.88Z"/></g></g></svg>