<svg xmlns="http://www.w3.org/2000/svg" viewBox="0 0 31.23 50.37"><defs><style>.cls-1{fill:#13110c;}</style></defs><title>Fichier 9</title><g id="Calque_2" data-name="Calque 2"><g id="Calque_1-2" data-name="Calque 1"><path class="cls-1" d="M15.65,0A15.67,15.67,0,0,0,0,15.65c0,7.16,10.08,25.11,14.67,34.12a1.09,1.09,0,0,0,1.94,0c4.55-9,14.62-27,14.62-34.12A15.61,15.61,0,0,0,15.65,0Zm.45,23.43-.28.16-.3-.15c-.31-.16-7.63-3.9-7.74-9A4.57,4.57,0,0,1,15.54,11a4.58,4.58,0,0,1,7.91,3.05C23.56,19.2,16.41,23.26,16.1,23.43Z"/></g></g></svg>