<svg xmlns="http://www.w3.org/2000/svg" viewBox="0 0 56.04 63.01"><defs><style>.cls-1{fill:none;}.cls-2{fill:#13110c;}</style></defs><title>Fichier 10</title><g id="Calque_2" data-name="Calque 2"><g id="Calque_1-2" data-name="Calque 1"><path class="cls-1" d="M49.38,27.9a7,7,0,0,1-3.51,1,5.73,5.73,0,0,1-2.83-.7.88.88,0,0,1-.35-.39,12.48,12.48,0,0,1-1.24-6.56l-.3.15C38.05,29.61,29.4,31.77,21,33.86,12.4,36,4.27,38,2.31,46.26a11.15,11.15,0,0,0,1.09,8.8c2.78,4.42,8.49,5.71,8.55,5.72C36.67,64.71,48.72,34.3,50.17,30.37A5.84,5.84,0,0,1,49.38,27.9Z"/><path class="cls-1" d="M51,10.78a12.77,12.77,0,0,0-.3-8.62l-1,.41C50.55,3.93,51.61,6.59,51,10.78Z"/><path class="cls-1" d="M48,14.58a11.55,11.55,0,0,0-2.54-.3c-4.59,0-7.09,3.19-8,6.39a12.11,12.11,0,0,0,4.66-2.1.94.94,0,0,1,1.55,1,10.57,10.57,0,0,0,.58,7.14,4.36,4.36,0,0,0,1.62.31,6,6,0,0,0,4-1.82.92.92,0,0,1,.64-.25,1,1,0,0,1,.52.15,1,1,0,0,1,.36,1.12,4,4,0,0,0,.51,3.47.18.18,0,0,1,.05.07,4.82,4.82,0,0,0,.57.65,14.05,14.05,0,0,1,1-4.75,9.54,9.54,0,0,0-.3-7.34A7.26,7.26,0,0,0,48,14.58Z"/><path class="cls-2" d="M54.94,17.43a8.41,8.41,0,0,0-3.15-3.36C52.83,12,55,6.31,52.05.51a1,1,0,0,0-1.2-.44l-3,1.21a.93.93,0,0,0-.57.7,1,1,0,0,0,.27.86c.13.12,3,3,1.11,10l-.27-.07a13.9,13.9,0,0,0-2.94-.34c-6,0-9.48,4.72-10.19,9.39a1,1,0,0,0,.28.82.91.91,0,0,0,.83.25c.21,0,1.13-.22,2.27-.55-3.23,6-10.46,7.83-18.1,9.73C11.78,34.21,2.7,36.47.47,45.83A13,13,0,0,0,1.8,56.07c3.2,5.09,9.48,6.5,9.8,6.57a30.47,30.47,0,0,0,4.68.37c21.6,0,32.77-24.66,35.28-31a8.34,8.34,0,0,0,1.53,1,1,1,0,0,0,.44.11h0a.94.94,0,0,0,.94-.94,1.14,1.14,0,0,0,0-.33,13.15,13.15,0,0,1,.84-5.52A11.47,11.47,0,0,0,54.94,17.43ZM50.73,2.16a12.77,12.77,0,0,1,.3,8.62c.58-4.19-.48-6.85-1.32-8.21Zm2.83,23.48a14.05,14.05,0,0,0-1,4.75,4.82,4.82,0,0,1-.57-.65.18.18,0,0,0-.05-.07,4,4,0,0,1-.51-3.47,1,1,0,0,0-.36-1.12,1,1,0,0,0-.52-.15.92.92,0,0,0-.64.25,6,6,0,0,1-4,1.82,4.36,4.36,0,0,1-1.62-.31,10.57,10.57,0,0,1-.58-7.14.94.94,0,0,0-1.55-1,12.11,12.11,0,0,1-4.66,2.1c.92-3.2,3.42-6.39,8-6.39a11.55,11.55,0,0,1,2.54.3,7.26,7.26,0,0,1,5.25,3.72A9.54,9.54,0,0,1,53.56,25.64Z"/></g></g></svg>