<svg xmlns="http://www.w3.org/2000/svg" viewBox="0 0 70.65 62.69"><defs><style>.cls-1{fill:#13110c;}</style></defs><title>Fichier 3</title><g id="Calque_2" data-name="Calque 2"><g id="Calque_1-2" data-name="Calque 1"><path class="cls-1" d="M70.27,49.22,56.59,35.54a1.3,1.3,0,0,0-1-.38l-10.07.55-8.35-8.36,16-16a4.5,4.5,0,0,0,.75,1.39,4.6,4.6,0,0,0,3.6,1.58h.15a3.64,3.64,0,0,0,2.52-.92c3.4-2.67,2.38-10.31,2.11-11.91a1,1,0,0,0-.05-.29h0l0,0v0h0a1.27,1.27,0,0,0-.73-.76l-.11,0a1.33,1.33,0,0,0-.42-.06C59.13,0,51.92-.77,49.2,2.36a3.86,3.86,0,0,0-1,2.73,4.55,4.55,0,0,0,1.58,3.6,4.55,4.55,0,0,0,1.52.8l-16,16-16-16a4.59,4.59,0,0,0,1.53-.8,4.6,4.6,0,0,0,1.58-3.6,3.89,3.89,0,0,0-1-2.73C18.72-.77,11.5,0,9.7.29a1.22,1.22,0,0,0-.53.1,1.29,1.29,0,0,0-.74.81v0h0l0,.11a1,1,0,0,0,0,.17c-.27,1.58-1.3,9.24,2.08,11.9a3.67,3.67,0,0,0,2.54.94h.16a4.6,4.6,0,0,0,3.6-1.58,4.5,4.5,0,0,0,.75-1.39l16,16-8.36,8.36-10.06-.55a1.29,1.29,0,0,0-1,.38L.38,49.22A1.29,1.29,0,0,0,.1,50.63a1.27,1.27,0,0,0,1.18.81l9.79.18.17,9.78a1.3,1.3,0,0,0,.82,1.19,1.33,1.33,0,0,0,1.41-.29L27.15,48.62a1.3,1.3,0,0,0,.38-1L27,37.55l8.35-8.35,8.34,8.35-.55,10.08a1.3,1.3,0,0,0,.38,1L57.18,62.3a1.33,1.33,0,0,0,.93.39,1.15,1.15,0,0,0,.48-.1,1.3,1.3,0,0,0,.82-1.19l.17-9.78,9.79-.17a1.31,1.31,0,0,0,.9-2.23Z"/></g></g></svg>