<?xml version="1.0" encoding="UTF-8"?>
<svg width="20px" height="20px" viewBox="0 0 20 20" version="1.1" xmlns="http://www.w3.org/2000/svg" xmlns:xlink="http://www.w3.org/1999/xlink">
    <!-- Generator: Sketch 51.3 (57544) - http://www.bohemiancoding.com/sketch -->
    <title>Shape Copy 4</title>
    <desc>Created with Sketch.</desc>
    <defs></defs>
    <g id="Page-1" stroke="none" stroke-width="1" fill="none" fill-rule="evenodd">
        <g id="Ecran_1" transform="translate(-1814.000000, -70.000000)" fill="#FFFFFF" fill-rule="nonzero">
            <g id="call" transform="translate(1525.000000, 40.000000)">
                <path d="M291.623185,41.2636769 C292.413138,42.2421451 295.177973,45.5502994 298.082212,47.6237201 C300.057094,49.0215318 301.637,49.5573596 301.869339,49.6272502 C302.58959,49.9301094 303.193672,50 303.681584,50 C304.215964,50 304.564473,49.9068126 304.657408,49.8602188 C305.470595,49.6272502 306.144379,49.1147193 306.771694,48.6254852 C307.538413,48.0197668 308.142495,47.4140484 308.653641,46.80833 C308.955682,46.4355802 309.071851,46.0628304 308.955682,45.6434869 L308.909214,45.5968931 C308.560705,44.781503 306.260548,42.8012697 306.237314,42.7779729 C305.888806,42.4984105 305.540297,42.1955513 305.14532,41.9392859 C304.959449,41.8228016 304.72711,41.6830204 304.471537,41.6364267 C303.890689,41.5432392 303.542181,41.9392859 303.309842,42.1955513 C303.286608,42.2188482 303.24014,42.2654419 303.216906,42.2887388 C303.077503,42.42852 302.914865,42.6148949 302.752228,42.8012697 C302.473421,43.1274258 301.915807,43.7797379 301.729936,43.8496285 C301.451129,43.8962222 300.382369,43.267207 299.847989,42.8245666 C298.244849,41.4966455 296.827581,40.0755369 296.223499,39.1902562 L296.200265,39.1669593 C295.247675,37.7924445 295.154739,37.373101 295.177973,37.2799135 C295.247675,37.0702418 295.898224,36.5111171 296.223499,36.2315548 C296.40937,36.0684767 296.595242,35.9053987 296.734645,35.7656175 C296.757879,35.7423207 296.804347,35.6957269 296.827581,35.6724301 C297.083154,35.4394615 297.47813,35.0667117 297.385195,34.4842901 C297.338727,34.2280247 297.222557,33.995056 297.083154,33.8086811 C296.827581,33.4126345 296.52554,33.0398847 296.246733,32.7137286 C296.200265,32.7137286 294.225383,30.4073393 293.412196,30.0578864 L293.342494,30.0345896 C292.947518,29.9414021 292.552541,30.0345896 292.180799,30.3374488 C291.576717,30.8499797 290.972636,31.4556981 290.368554,32.2244945 C289.857408,32.8535098 289.369496,33.5291188 289.137157,34.344509 C289.067455,34.5308839 288.765414,35.6025395 289.369496,37.1168355 C289.462431,37.3963978 289.973577,39.213553 291.623185,41.2636769 Z M290.092657,34.6922356 L290.115734,34.6460826 C290.300346,33.9999414 290.738799,33.3999531 291.177252,32.8691943 C291.754163,32.1538236 292.307999,31.5999883 292.861834,31.1384588 C292.977216,31.0461529 293.069522,31 293.115675,31 C293.115675,31 293.138752,31 293.138752,31 C293.554128,31.2307647 294.846411,32.5692001 295.538705,33.3999531 C295.815623,33.7230237 296.09254,34.0460944 296.300228,34.3922414 C296.369458,34.5076238 296.438687,34.5999297 296.461764,34.6922356 C296.48484,34.761465 296.369458,34.8768474 296.184846,35.0383827 C296.138693,35.0845356 296.115617,35.1076121 296.069464,35.153765 C295.954081,35.2691474 295.792546,35.4076062 295.607934,35.5691415 C294.91564,36.1460534 294.431034,36.6075828 294.292575,37.0229593 C294.13104,37.5306417 294.454111,38.2690888 295.446399,39.6767536 L295.469475,39.6998301 C296.254076,40.8305773 297.984811,42.4459303 299.254017,43.4843716 C299.277093,43.5074481 301.077058,44.9612658 301.977041,44.6843482 C302.415494,44.5458893 302.853947,44.0612834 303.430858,43.3689892 C303.592394,43.1843774 303.730853,43.0228421 303.846235,42.9074598 C303.892388,42.8613068 303.915464,42.8382304 303.961617,42.7920774 C304.123153,42.6305421 304.238535,42.5151597 304.307764,42.5151597 C304.40007,42.5382362 304.515453,42.6074656 304.607759,42.676695 C304.953906,42.9074598 305.276976,43.161301 305.600047,43.4382186 C306.4308,44.1535893 307.769235,45.4458717 308,45.8612482 C308,45.9304777 308,46.0227836 307.861541,46.1612424 C307.400012,46.7150777 306.8231,47.2689131 306.130806,47.8458249 C305.57697,48.2842779 305.000059,48.7227308 304.353917,48.9073426 L304.330841,48.9073426 C304.284688,48.9304191 303.477011,49.2073367 302.207805,48.6765779 L302.161652,48.6535014 C302.138576,48.6535014 300.569376,48.1688955 298.654029,46.7843071 C295.884852,44.7997305 293.184905,41.5921008 292.423381,40.6459655 C290.808028,38.6613888 290.346499,36.8845005 290.346499,36.861424 L290.323422,36.7921946 C289.792663,35.5460651 290.069581,34.7153121 290.092657,34.6922356 Z" id="Shape-Copy-4"></path>
            </g>
        </g>
    </g>
</svg>