<svg xmlns="http://www.w3.org/2000/svg" viewBox="0 0 46.28 46.28"><defs><style>.cls-1{fill:#13110c;}</style></defs><title>Fichier 21</title><g id="Calque_2" data-name="Calque 2"><g id="Calque_1-2" data-name="Calque 1"><path class="cls-1" d="M26,6.57,8.56,24a1.34,1.34,0,0,0-.38.93V28.9a1.36,1.36,0,0,0,.34.86L6.13,33.89a1.33,1.33,0,0,0,.2,1.58l1.31,1.31L.38,44.05A1.3,1.3,0,0,0,0,45a1.31,1.31,0,0,0,1.31,1.31,1.3,1.3,0,0,0,.92-.38L9.5,38.66l1,1a1.32,1.32,0,0,0,.94.38,1.31,1.31,0,0,0,.59-.13l4.39-2.26h0a1.37,1.37,0,0,0,.95.42h3.94a1.34,1.34,0,0,0,.93-.38L39.71,20.26l3,3a1.32,1.32,0,0,0,1.86,0h0a1.32,1.32,0,0,0,0-1.86h0l-3.76-3.75a1.1,1.1,0,0,0-.14-.21L38.3,15.08l4-4L44,12.76a1.32,1.32,0,0,0,1.86,0h0a1.31,1.31,0,0,0,0-1.86h0L43.27,8.27,38,3,35.39.39a1.32,1.32,0,1,0-1.87,1.86L35.23,4l-4,4L28.82,5.64,24.88,1.7A1.32,1.32,0,0,0,23,3.56ZM11.69,37.15,8.91,34.34l1.52-2.63,4,4ZM37.08,5.8l3.4,3.4-4,4L33,9.84Z"/></g></g></svg>