<svg xmlns="http://www.w3.org/2000/svg" viewBox="0 0 70.8 33.3"><defs><style>.cls-1{fill:#13110c;}</style></defs><title>Fichier 20</title><g id="Calque_2" data-name="Calque 2"><g id="Calque_1-2" data-name="Calque 1"><path class="cls-1" d="M67.2,8.6H64.8A9.65,9.65,0,0,0,55.2,0H15.4A9.73,9.73,0,0,0,5.8,8.6H3.4A3.37,3.37,0,0,0,0,12v9.3a3.37,3.37,0,0,0,3.4,3.4H5.8a9.65,9.65,0,0,0,9.6,8.6h9.7A6.83,6.83,0,0,0,30,31.2,7.55,7.55,0,0,1,35.4,29a7.73,7.73,0,0,1,5.4,2.2,7.26,7.26,0,0,0,4.9,2.1h9.7A9.73,9.73,0,0,0,65,24.7h2.4a3.37,3.37,0,0,0,3.4-3.4V12A3.77,3.77,0,0,0,67.2,8.6Zm1.1,12.8a1.11,1.11,0,0,1-1.1,1.1H64.9V10.9h2.3A1.11,1.11,0,0,1,68.3,12Zm-66,0V12.1A1.11,1.11,0,0,1,3.4,11H5.7V22.6H3.4A1.28,1.28,0,0,1,2.3,21.4Z"/></g></g></svg>