<svg xmlns="http://www.w3.org/2000/svg" viewBox="0 0 47.88 42.11"><defs><style>.cls-1{fill:#13110c;}</style></defs><title>Fichier 19</title><g id="Calque_2" data-name="Calque 2"><g id="Calque_1-2" data-name="Calque 1"><path class="cls-1" d="M7.36,26.3V1A1,1,0,0,0,5.41,1V26.3a6.37,6.37,0,0,0,0,12.6v2.24a1,1,0,0,0,2,0V38.9a6.37,6.37,0,0,0,0-12.6Z"/><path class="cls-1" d="M24.92,3.21V1a1,1,0,0,0-2,0V3.21a6.38,6.38,0,0,0,0,12.61V41.14a1,1,0,0,0,2,0V15.82a6.38,6.38,0,0,0,0-12.61Z"/><path class="cls-1" d="M47.88,32.6a6.38,6.38,0,0,0-5.41-6.3V1a1,1,0,0,0-1.95,0V26.3a6.37,6.37,0,0,0,0,12.6v2.24a1,1,0,0,0,1.95,0V38.9A6.38,6.38,0,0,0,47.88,32.6Z"/></g></g></svg>