<svg xmlns="http://www.w3.org/2000/svg" viewBox="0 0 57.01 54.27"><defs><style>.cls-1{fill:#13110c;}.cls-2{fill:#fff;}</style></defs><title>Fichier 18</title><g id="Calque_2" data-name="Calque 2"><g id="Calque_1-2" data-name="Calque 1"><path class="cls-1" d="M54.79,25.78H51.52A13.46,13.46,0,0,0,38.13,13.57H29.85V10.66a5.43,5.43,0,1,0-2.72,0v2.91H18.88a13.47,13.47,0,0,0-13.4,12.2H2.22A2.22,2.22,0,0,0,0,28v7.77A2.23,2.23,0,0,0,2.22,38h3.2V52.05a2.23,2.23,0,0,0,2.22,2.22H49.33a2.22,2.22,0,0,0,2.22-2.22l0-14.06h3.22A2.23,2.23,0,0,0,57,35.77V28A2.22,2.22,0,0,0,54.79,25.78ZM23.06,51.55H17.65V43.41h5.41Zm8.14,0H25.78V43.41H31.2Zm8.16,0H33.92V43.41h5.44Z"/><path class="cls-2" d="M19,21.71a5.43,5.43,0,1,0,5.43,5.42A5.42,5.42,0,0,0,19,21.71Zm0,8.14a2.72,2.72,0,1,1,2.72-2.72A2.72,2.72,0,0,1,19,29.85Z"/><path class="cls-2" d="M38,21.71a5.43,5.43,0,1,0,5.42,5.42A5.43,5.43,0,0,0,38,21.71Zm0,8.14a2.72,2.72,0,1,1,2.71-2.72A2.72,2.72,0,0,1,38,29.85Z"/></g></g></svg>