<?xml version="1.0" encoding="UTF-8"?>
<svg width="120px" height="83px" viewBox="0 0 120 83" version="1.1" xmlns="http://www.w3.org/2000/svg" xmlns:xlink="http://www.w3.org/1999/xlink">
    <!-- Generator: Sketch 52.4 (67378) - http://www.bohemiancoding.com/sketch -->
    <title>noun_Quote_648267 Copy</title>
    <desc>Created with Sketch.</desc>
    <g id="Page-1" stroke="none" stroke-width="1" fill="none" fill-rule="evenodd" opacity="0.2">
        <g id="taskbar_1-copy-23" transform="translate(-113.000000, -240.000000)" fill="#6A79A2" fill-rule="nonzero">
            <g id="Group-2" transform="translate(113.000000, 240.000000)">
                <g id="noun_Quote_648267-Copy" transform="translate(60.000000, 41.500000) rotate(-180.000000) translate(-60.000000, -41.500000) ">
                    <g id="Group">
                        <path d="M94.8837209,0 C81.0334884,0 69.7674419,11.2688372 69.7674419,25.1162791 C69.7674419,38.9637209 81.0334884,50.2325581 94.8837209,50.2325581 C101.226977,50.2325581 107.012093,47.8493023 111.43814,43.9562791 C106.953488,58.4065116 97.7916279,71.2716279 86.695814,77.3106977 C85.3423256,78.0474419 84.84,79.7413953 85.5795349,81.092093 C86.0846512,82.024186 87.0418605,82.5488372 88.0325581,82.5488372 C88.4818605,82.5488372 88.9395349,82.44 89.3637209,82.2083721 C106.827907,72.7088372 120,48.1646512 120,25.1162791 C120,11.2688372 108.733953,0 94.8837209,0 Z" id="Shape"></path>
                        <path d="M25.1162791,0 C11.2688372,0 0,11.2688372 0,25.1162791 C0,38.9637209 11.2688372,50.2325581 25.1162791,50.2325581 C31.4595349,50.2325581 37.2446512,47.8493023 41.6706977,43.9534884 C37.1860465,58.4037209 28.024186,71.2716279 16.9255814,77.3106977 C15.572093,78.0474419 15.0697674,79.7413953 15.8093023,81.092093 C16.3144186,82.024186 17.2744186,82.5488372 18.2623256,82.5488372 C18.7116279,82.5488372 19.1693023,82.44 19.5934884,82.2083721 C37.0604651,72.7088372 50.2325581,48.1646512 50.2325581,25.1162791 C50.2325581,11.2688372 38.9637209,0 25.1162791,0 Z" id="Shape"></path>
                    </g>
                </g>
            </g>
        </g>
    </g>
</svg>