<?xml version="1.0" encoding="UTF-8"?>
<svg width="25px" height="21px" viewBox="0 0 25 21" version="1.1" xmlns="http://www.w3.org/2000/svg" xmlns:xlink="http://www.w3.org/1999/xlink">
    <!-- Generator: Sketch 51.3 (57544) - http://www.bohemiancoding.com/sketch -->
    <title>Fill 1</title>
    <desc>Created with Sketch.</desc>
    <defs></defs>
    <g id="Page-1" stroke="none" stroke-width="1" fill="none" fill-rule="evenodd">
        <g id="Ecran_3" transform="translate(-1539.000000, -474.000000)" fill="#FFFFFF" stroke="#FFFFFF" stroke-width="0.5">
            <g id="index" transform="translate(1526.000000, 459.000000)">
                <g id="Page-1" transform="translate(14.000000, 16.000000)">
                    <path d="M22.3030303,15.4729861 C22.115197,15.4435656 21.9095909,15.4144912 21.6879545,15.3871475 C20.3863636,15.2255079 19.0405152,15.1742816 17.7769091,15.2995783 C17.2524394,15.3514968 16.7565455,15.4338741 16.2941061,15.5487871 C15.2521364,15.8073413 14.2380455,16.2652625 13.2723939,16.8647482 C12.7496667,17.1890658 12.2722424,17.5355353 11.8484848,17.8833893 L11.8484848,3.57222613 C11.9798636,3.45177519 12.1063636,3.34136184 12.2499394,3.22264152 C12.6618485,2.88171 13.1291667,2.54043235 13.6417879,2.22199885 C14.5495909,1.65850999 15.4981667,1.23035538 16.4634697,0.990838004 C16.8914091,0.884578129 17.3538485,0.80773874 17.8459091,0.758935344 C19.0506212,0.63952278 20.3476818,0.689018422 21.6015303,0.844427817 C21.8594091,0.876617291 22.0946364,0.910883505 22.3030303,0.944803596 L22.3030303,15.4729861 Z M11.1515152,17.8833893 C10.7274091,17.5355353 10.2503333,17.1890658 9.72760606,16.8647482 C8.76195455,16.2652625 7.74786364,15.8073413 6.70589394,15.5487871 C6.24310606,15.4338741 5.74756061,15.3514968 5.22309091,15.2995783 C3.95948485,15.1742816 2.61363636,15.2255079 1.31204545,15.3871475 C1.09040909,15.4144912 0.88480303,15.4435656 0.696969697,15.4729861 L0.696969697,0.944803596 C0.905363636,0.910883505 1.14059091,0.876617291 1.3984697,0.844427817 C2.65231818,0.689018422 3.94937879,0.63952278 5.15374242,0.758935344 C5.64615152,0.80773874 6.10859091,0.884578129 6.5365303,0.990838004 C7.50148485,1.23035538 8.45040909,1.65850999 9.35821212,2.22199885 C9.87083333,2.54043235 10.3381515,2.88171 10.7500606,3.22264152 C10.8936364,3.34136184 11.0197879,3.45177519 11.1515152,3.57222613 L11.1515152,17.8833893 Z M22.7198182,0.315551302 C22.6678939,0.305167601 22.5720606,0.287515309 22.4378939,0.265363413 C22.2155606,0.228674335 21.9639545,0.191985258 21.6879545,0.157719044 C20.3863636,-0.003920572 19.0405152,-0.0554929547 17.7769091,0.07014983 C17.2524394,0.122068336 16.7565455,0.204445699 16.2941061,0.319012536 C15.2521364,0.577912819 14.2380455,1.03583404 13.2723939,1.6349736 C12.731197,1.9710594 12.2387879,2.33068158 11.8038788,2.69064989 C11.6930606,2.78237259 11.5916515,2.86959568 11.5,2.95093467 C11.4083485,2.86959568 11.3069394,2.78237259 11.1961212,2.69064989 C10.7612121,2.33068158 10.268803,1.9710594 9.72760606,1.6349736 C8.76195455,1.03583404 7.74786364,0.577912819 6.70589394,0.319012536 C6.24310606,0.204445699 5.74756061,0.122068336 5.22309091,0.07014983 C3.95948485,-0.0554929547 2.61363636,-0.003920572 1.31204545,0.157719044 C1.03604545,0.191985258 0.784439394,0.228674335 0.562106061,0.265363413 C0.427939394,0.287515309 0.332106061,0.305167601 0.280181818,0.315551302 C0.117090909,0.347740776 0,0.489997482 0,0.654752208 L0,15.8841807 C0,16.1025845 0.201075758,16.266647 0.416787879,16.2237277 C0.461742424,16.2150746 0.549909091,16.1988068 0.676757576,16.1776933 C0.890030303,16.1423887 1.13222727,16.1070841 1.3984697,16.0738563 C2.65231818,15.9181007 3.94937879,15.8689512 5.15374242,15.9883638 C5.64615152,16.0371672 6.10859091,16.1140066 6.5365303,16.2199203 C7.50148485,16.4597838 8.45040909,16.8882846 9.35821212,17.4517734 C9.87083333,17.7698608 10.3381515,18.1111384 10.7500606,18.4517238 C10.8936364,18.5707903 11.0197879,18.6812036 11.1274697,18.7795027 C11.1776515,18.8255371 11.2149394,18.8604955 11.2382879,18.8829936 C11.2550152,18.9016842 11.2741818,18.9189904 11.2950909,18.9335276 C11.3578182,18.9799081 11.4296061,19.0006755 11.5,18.9999833 C11.5703939,19.0006755 11.6421818,18.9799081 11.7049091,18.9335276 C11.7254697,18.9189904 11.7449848,18.9016842 11.7617121,18.8829936 C11.7850606,18.8604955 11.8223485,18.8255371 11.8725303,18.7795027 C11.9798636,18.6812036 12.1063636,18.5707903 12.2499394,18.4517238 C12.6618485,18.1111384 13.1291667,17.7698608 13.6417879,17.4517734 C14.5495909,16.8882846 15.4981667,16.4597838 16.4634697,16.2199203 C16.8914091,16.1140066 17.3538485,16.0371672 17.8459091,15.9883638 C19.0506212,15.8689512 20.3476818,15.9181007 21.6015303,16.0738563 C21.8677727,16.1070841 22.1099697,16.1423887 22.3232424,16.1776933 C22.4500909,16.1988068 22.5382576,16.2150746 22.5832121,16.2237277 C22.7985758,16.266647 23,16.1025845 23,15.8841807 L23,0.654752208 C23,0.489997482 22.8829091,0.347740776 22.7198182,0.315551302 Z" id="Fill-1"></path>
                </g>
            </g>
        </g>
    </g>
</svg>