<svg xmlns="http://www.w3.org/2000/svg" viewBox="0 0 45.18 55.6"><defs><style>.cls-1{fill:#13110c;}</style></defs><title>Fichier 13</title><g id="Calque_2" data-name="Calque 2"><g id="Calque_1-2" data-name="Calque 1"><path class="cls-1" d="M45.16,9.45a1.13,1.13,0,0,0,0-.18l-.07-.15L45,9l-.13-.12a.57.57,0,0,0-.13-.08l-.17-.07a.32.32,0,0,1-.09,0c-.14,0-14-2.23-21.29-8.49L23.07.15a.83.83,0,0,0-.16-.09l-.14,0-.19,0-.14,0-.18,0-.13.08A.33.33,0,0,0,22,.2C14.73,6.46.87,8.67.74,8.69s-.07,0-.1,0a.49.49,0,0,0-.17.06.38.38,0,0,0-.13.09A.43.43,0,0,0,.22,9a.51.51,0,0,0-.09.13,1.09,1.09,0,0,0-.08.15l0,.17s0,.07,0,.11c0,39.3,21.44,45.76,22.36,46a.85.85,0,0,0,.23,0h0l.23,0c.91-.26,22.35-6.72,22.35-46A.3.3,0,0,0,45.16,9.45Z"/></g></g></svg>