<?xml version="1.0" encoding="UTF-8"?>
<svg width="39px" height="57px" viewBox="0 0 39 57" version="1.1" xmlns="http://www.w3.org/2000/svg" xmlns:xlink="http://www.w3.org/1999/xlink">
    <!-- Generator: Sketch 52.4 (67378) - http://www.bohemiancoding.com/sketch -->
    <title>Logo</title>
    <desc>Created with Sketch.</desc>
    <g id="Page-1" stroke="none" stroke-width="1" fill="none" fill-rule="evenodd" stroke-linecap="round" stroke-linejoin="round">
        <g id="Artboard-Copy-54" transform="translate(-28.000000, -31.000000)" stroke="#FEFEFE" stroke-width="2.502">
            <g id="Logo" transform="translate(30.000000, 33.000000)">
                <path d="M23.486924,38.0430227 L29.8388601,38.0882172 C30.2541268,38.0910832 30.5920377,37.752896 30.5913803,37.3351224 L30.5802042,31.4316171 C30.5795468,31.0253074 30.2532502,30.6954978 29.8493787,30.6928522 L24.3696121,30.6562557 C23.9508393,30.6533897 23.6131475,30.3107933 23.614024,29.8897127 L23.623447,24.4114768 C23.6243235,23.9372651 24.0051855,23.5523402 24.4767706,23.5494742 L34.0831263,23.4925952 C34.5902118,23.4895088 35,23.0748216 35,22.5646748 L35,17.7742772 C35,17.2453912 34.5755296,16.8172559 34.0495982,16.8194605 C29.9341852,16.836877 13.545287,16.907645 6.63827414,16.9568078 C-1.9087681,17.017655 -2.51161693,6.50497115 6.63827414,6.70713391 C6.53155389,-2.48190196 16.9811529,-1.98608512 16.9811529,6.70713391" id="Stroke-1"></path>
                <path d="M8.23529412,29.8530521 L8.23529412,52.0978872 C8.23529412,52.604445 8.64581096,53.0147059 9.15218903,53.0147059 L15.9055239,53.0147059 C16.3894899,53.0147059 16.7818109,52.6226394 16.7818109,52.1387136 L16.9852941,6.69117647" id="Stroke-3"></path>
            </g>
        </g>
    </g>
</svg>