<svg xmlns="http://www.w3.org/2000/svg" viewBox="0 0 71.07 31.85"><defs><style>.cls-1{fill:#13110c;}</style></defs><title>Fichier 7</title><g id="Calque_2" data-name="Calque 2"><g id="Calque_1-2" data-name="Calque 1"><path class="cls-1" d="M70,1.15a1.46,1.46,0,0,0-1.65.66c-1,1.66-3.68,3.5-5.51,4.59-.43-1.29-1-3.4-1.35-5.22A1.45,1.45,0,0,0,60.2,0a1.49,1.49,0,0,0-1.51.86C56.54,5.59,48.34,5.94,45.87,5.94c-.74,0-1.22,0-1.38,0a10.86,10.86,0,0,0-9,4.45C34,8.18,31.16,6.05,26.44,5.91c0,0-.49,0-1.23,0-2.47,0-10.67-.35-12.82-5.07A1.43,1.43,0,0,0,11,0,1.47,1.47,0,0,0,9.65,1C9.22,2.14,8.42,4.39,7.91,6.2,6.1,5.08,3.7,3.37,2.75,1.81A1.46,1.46,0,0,0,1.1,1.15,1.45,1.45,0,0,0,0,2.57,44.55,44.55,0,0,0,3.36,18.35a23.25,23.25,0,0,0,10,11.37,16.41,16.41,0,0,0,3.32,1.36,17.74,17.74,0,0,0,5.25.77,17,17,0,0,0,13.59-6.7,17.08,17.08,0,0,0,13.61,6.7,18.12,18.12,0,0,0,8.57-2.13,23.3,23.3,0,0,0,10-11.37A44.41,44.41,0,0,0,71.07,2.57,1.47,1.47,0,0,0,70,1.15ZM30.74,20.2a13.67,13.67,0,0,1-7.88,2.49,13.78,13.78,0,0,1-11.27-5.86A1.5,1.5,0,0,1,12,14.77a13.72,13.72,0,0,1,19.13,3.37,1.35,1.35,0,0,1,.25,1.1A1.45,1.45,0,0,1,30.74,20.2Zm28.73-3.37A13.72,13.72,0,0,1,40.34,20.2,1.51,1.51,0,0,1,40,18.14a13.75,13.75,0,0,1,19.15-3.37,1.45,1.45,0,0,1,.6.94A1.41,1.41,0,0,1,59.47,16.83Z"/></g></g></svg>