<svg xmlns="http://www.w3.org/2000/svg" viewBox="0 0 58.02 59.03"><defs><style>.cls-1{fill:#13110c;}.cls-2{fill:#fff;}</style></defs><title>Fichier 8</title><g id="Calque_2" data-name="Calque 2"><g id="Calque_1-2" data-name="Calque 1"><path class="cls-1" d="M54.05,10.52a4,4,0,0,0-3.84,5.19l-9.83,7.56a22,22,0,0,0-2.33-2l12-13.42a3.69,3.69,0,0,0,1.29.24A4.08,4.08,0,1,0,48,6.19L35.76,19.79a21.53,21.53,0,0,0-2.12-1L38.68,8a4.21,4.21,0,0,0,.63.06,4,4,0,1,0,0-8.06,4.07,4.07,0,0,0-4.05,4.05,3.94,3.94,0,0,0,1,2.67L31,18a19.18,19.18,0,0,0-4.5-.55A19.48,19.48,0,0,0,7.08,36.91v2.85C-2.22,50.59.2,56.48.5,57.11l.74,1.54,1.33-1.1c2.89-2.41,11.31-8.78,15.33-9.26,1.4-.11,5.79-.06,7.4,1.45A1.62,1.62,0,0,1,25.85,51v8H46V36.91a19.19,19.19,0,0,0-3.89-11.6l9.68-7.43a4,4,0,0,0,2.25.69,4,4,0,0,0,4-4A4,4,0,0,0,54.05,10.52Z"/><circle class="cls-2" cx="22.26" cy="33.81" r="3.32"/></g></g></svg>