<svg xmlns="http://www.w3.org/2000/svg" viewBox="0 0 92.49 57.08"><defs><style>.cls-1{fill:none;}.cls-2{fill:#13110c;}</style></defs><title>Fichier 6</title><g id="Calque_2" data-name="Calque 2"><g id="Calque_1-2" data-name="Calque 1"><path class="cls-1" d="M37.11,35.08,22.37,9.54a43.65,43.65,0,0,0-7,5.18l21,21C36.57,35.49,36.83,35.28,37.11,35.08Z"/><path class="cls-1" d="M3.38,34.73l.08,0,28.42,7.61a7.7,7.7,0,0,1,.25-.91L6.35,26.56A37.69,37.69,0,0,0,3.38,34.73Z"/><path class="cls-1" d="M34.86,43.16l6.21,1.67L36.27,40A8.44,8.44,0,0,0,34.86,43.16Z"/><path class="cls-1" d="M7.82,23.86,33.5,38.68c.19-.29.39-.56.6-.82l-21-21A40.85,40.85,0,0,0,7.82,23.86Z"/><path class="cls-1" d="M38.48,37.87l4.78,4.78-1.71-6.39A12.49,12.49,0,0,0,38.48,37.87Z"/><path class="cls-1" d="M40.76,33.28,33.18,5l0-.11a44.93,44.93,0,0,0-8.07,3.13L39.83,33.64A8.11,8.11,0,0,1,40.76,33.28Z"/><path class="cls-1" d="M56.21,35.7l21-21a44,44,0,0,0-7-5.18L55.39,35.08C55.67,35.28,55.93,35.49,56.21,35.7Z"/><path class="cls-1" d="M52.66,33.64,67.43,8.06a45,45,0,0,0-8.08-3.13l0,.1L51.73,33.28A7.45,7.45,0,0,1,52.66,33.64Z"/><path class="cls-1" d="M79.39,16.86l-21,21a8.3,8.3,0,0,1,.61.82L84.57,23.91A62.6,62.6,0,0,0,79.39,16.86Z"/><path class="cls-1" d="M51.43,44.83l6.21-1.67A8.31,8.31,0,0,0,56.22,40Z"/><path class="cls-1" d="M60.37,41.45c.09.31.18.6.24.91L89,34.75l.08,0a37.71,37.71,0,0,0-3-8.17Z"/><path class="cls-1" d="M51,36.26l-1.71,6.39L54,37.87A12.86,12.86,0,0,0,51,36.26Z"/><path class="cls-1" d="M44.71,3.14a49.31,49.31,0,0,0-8.57,1l7.61,28.39c.32,0,.63-.09,1-.12Z"/><path class="cls-1" d="M44.55,35.56l1.7,6.35,1.69-6.35A13.73,13.73,0,0,0,44.55,35.56Z"/><path class="cls-1" d="M47.79,3.14V32.45c.32,0,.63.08,1,.12L56.36,4.18A49.42,49.42,0,0,0,47.79,3.14Z"/><path class="cls-2" d="M92.45,35.44s0,0,0,0,0,0,0-.06C88.33,14.84,69,0,46.25,0S4.16,14.84.09,35.33c0,0,0,.05,0,.06s0,0,0,0a1.3,1.3,0,0,0,0,.65,1.53,1.53,0,0,0,1.11,1.34l31.63,8.38h0l7.48,2-2.13.57A1.57,1.57,0,0,0,37,50.28a1.54,1.54,0,0,0,1.5,1.14,1.81,1.81,0,0,0,.4,0l2.14-.57-1.57,1.57a1.54,1.54,0,0,0,2.17,2.19L43.29,53l-.59,2.17A1.54,1.54,0,0,0,43.78,57h0a1.34,1.34,0,0,0,.4.06,1.54,1.54,0,0,0,1.48-1.15l.57-2.13.57,2.13a1.53,1.53,0,0,0,1.48,1.15,1.39,1.39,0,0,0,.4-.06,1.54,1.54,0,0,0,1.1-1.87h0L49.21,53l1.6,1.6A1.54,1.54,0,0,0,53,52.38l-1.57-1.57,2.14.57a1.87,1.87,0,0,0,.4,0,1.53,1.53,0,0,0,1.5-1.14,1.56,1.56,0,0,0-1.09-1.89l-2.13-.57,7.47-2h0l31.63-8.38a1.52,1.52,0,0,0,1.11-1.34A1.43,1.43,0,0,0,92.45,35.44ZM34.86,43.16A8.44,8.44,0,0,1,36.27,40l4.8,4.8Zm3.62-5.29a12.49,12.49,0,0,1,3.07-1.61l1.71,6.39Zm7.77,4-1.7-6.35a13.73,13.73,0,0,1,3.39,0Zm3,.74L51,36.26A12.86,12.86,0,0,1,54,37.87Zm2.19,2.18L56.22,40a8.31,8.31,0,0,1,1.42,3.13Z"/></g></g></svg>