<svg xmlns="http://www.w3.org/2000/svg" viewBox="0 0 55.35 55.35"><defs><style>.cls-1{fill:#13110c;}</style></defs><title>Fichier 24</title><g id="Calque_2" data-name="Calque 2"><g id="Calque_1-2" data-name="Calque 1"><path class="cls-1" d="M50.74,0H4.61A4.64,4.64,0,0,0,0,4.61V35.37a4.54,4.54,0,0,0,1.17,3.07A4.55,4.55,0,0,0,0,41.52v9.22a4.64,4.64,0,0,0,4.61,4.61H50.74a4.64,4.64,0,0,0,4.61-4.61V41.52a4.59,4.59,0,0,0-1.16-3.08,4.58,4.58,0,0,0,1.16-3.07V4.61A4.64,4.64,0,0,0,50.74,0Zm1.54,50.74a1.53,1.53,0,0,1-1.54,1.54H4.61a1.52,1.52,0,0,1-1.53-1.54V41.52A1.51,1.51,0,0,1,4.61,40H50.74a1.52,1.52,0,0,1,1.54,1.54Zm0-15.37a1.52,1.52,0,0,1-1.54,1.53H4.61a1.51,1.51,0,0,1-1.53-1.53V4.61A1.51,1.51,0,0,1,4.61,3.08H50.74a1.52,1.52,0,0,1,1.54,1.53Z"/><path class="cls-1" d="M6.15,33.83H49.2V6.15H6.15Z"/><rect class="cls-1" x="7.69" y="42.32" width="3.08" height="3.08"/><rect class="cls-1" x="12.3" y="42.32" width="3.08" height="3.08"/><rect class="cls-1" x="16.91" y="42.32" width="3.08" height="3.08"/><rect class="cls-1" x="21.53" y="42.32" width="3.08" height="3.08"/><rect class="cls-1" x="26.14" y="42.32" width="3.08" height="3.08"/><rect class="cls-1" x="30.75" y="42.32" width="3.08" height="3.08"/><rect class="cls-1" x="35.37" y="42.32" width="3.08" height="3.08"/><rect class="cls-1" x="39.98" y="42.32" width="3.08" height="3.08"/><rect class="cls-1" x="44.59" y="42.32" width="3.08" height="3.08"/><rect class="cls-1" x="7.69" y="46.93" width="3.08" height="3.08"/><rect class="cls-1" x="12.3" y="46.93" width="3.08" height="3.08"/><rect class="cls-1" x="16.91" y="46.93" width="3.08" height="3.08"/><rect class="cls-1" x="35.37" y="46.93" width="3.08" height="3.08"/><rect class="cls-1" x="39.98" y="46.93" width="3.08" height="3.08"/><rect class="cls-1" x="44.59" y="46.93" width="3.08" height="3.08"/><rect class="cls-1" x="21.53" y="46.93" width="12.3" height="3.08"/></g></g></svg>