<svg xmlns="http://www.w3.org/2000/svg" viewBox="0 0 58.61 58.61"><defs><style>.cls-1{fill:#13110c;}</style></defs><title>Fichier 22</title><g id="Calque_2" data-name="Calque 2"><g id="Calque_1-2" data-name="Calque 1"><path class="cls-1" d="M54.59,13.25H44A12.39,12.39,0,0,0,45.36,8c0-4.74-3.93-8-9.47-8s-9.48,3.29-9.48,8a11.33,11.33,0,0,0,1.37,5.22H17.26a4,4,0,0,0-4,4v10.6A12.41,12.41,0,0,0,8,26.49c-4.74,0-8,3.94-8,9.48s3.29,9.47,8,9.47a11.32,11.32,0,0,0,5.22-1.36V54.59a4,4,0,0,0,4,4H30.75a3.36,3.36,0,0,0,1.19-.23c-2.74-2.1-5.86-5.3-5.94-9.11a5.92,5.92,0,0,1,10-4.39,5.93,5.93,0,0,1,10.23,3.95c.09,4-3.21,7.49-6,9.69a3.37,3.37,0,0,0,.71.09H54.51a4,4,0,0,0,4-4V18a2.21,2.21,0,0,0,.08-.72A4,4,0,0,0,54.59,13.25Z"/></g></g></svg>