<?xml version="1.0" encoding="utf-8"?>
<!-- Generator: Adobe Illustrator 22.1.0, SVG Export Plug-In . SVG Version: 6.00 Build 0)  -->
<svg version="1.1" id="Calque_1" xmlns="http://www.w3.org/2000/svg" xmlns:xlink="http://www.w3.org/1999/xlink" x="0px" y="0px"
	 viewBox="0 0 512 512" style="enable-background:new 0 0 512 512;" xml:space="preserve">
<style type="text/css">
	.st0{fill:#010101;}
</style>
<path class="st0" d="M427.5,141.8c0-27.3-21.8-50.7-50.8-50.7c0,0,0,0-0.1,0c0-39.7-42.9-63.5-76.4-44c-19.4-34.6-69.2-34.6-88.5,0
	c-33.3-19.5-76.4,4.1-76.4,44c-28.9-0.1-50.9,23.4-50.9,50.7v19.1c0,0.6,37.6,315,37.6,315.6c0.6,4.8,4.6,8.4,9.5,8.4
	c285.4,0-33.4,0,248.5,0c4.8,0,8.9-3.6,9.5-8.4c0.1-0.6,38-315,38-315.6V141.8z M97.2,141.8c0-21.3,17.6-39.5,40.8-38
	c5.7,0.4,10.6-4.4,10.2-10.2c-2.1-32.5,33.6-51.8,59.5-34.1c4.8,3.3,11.5,1.4,13.9-3.8c13.6-29.1,55.2-29.2,68.9,0
	c2.5,5.2,9.1,7.1,13.9,3.8c26.1-17.8,61.5,1.9,59.5,34.1c-0.4,5.8,4.4,10.6,10.2,10.2c23-1.5,40.8,16.5,40.8,38v12.7
	c-151.1,0-163,0-317.7,0V141.8z M344.7,167.2v304.9h-50.8V167.2H344.7z M166.9,167.2h50.8v304.9h-50.8V167.2z"/>
</svg>
