<?xml version="1.0" encoding="UTF-8"?>
<svg width="20px" height="20px" viewBox="0 0 20 20" version="1.1" xmlns="http://www.w3.org/2000/svg" xmlns:xlink="http://www.w3.org/1999/xlink">
    <!-- Generator: Sketch 51.3 (57544) - http://www.bohemiancoding.com/sketch -->
    <title>Shape Copy</title>
    <desc>Created with Sketch.</desc>
    <defs></defs>
    <g id="Page-1" stroke="none" stroke-width="1" fill="none" fill-rule="evenodd">
        <g id="Ecran_3" transform="translate(-1820.000000, -55.000000)" fill="#FFFFFF" fill-rule="nonzero">
            <g id="call" transform="translate(1805.000000, 40.000000)">
                <path d="M17.623185,26.2636769 C18.413138,27.2421451 21.1779732,30.5502994 24.0822119,32.6237201 C26.0570943,34.0215318 27.6370001,34.5573596 27.8693392,34.6272502 C28.5895904,34.9301094 29.1936721,35 29.6815842,35 C30.2159641,35 30.5644728,34.9068126 30.6574084,34.8602188 C31.4705952,34.6272502 32.1443786,34.1147193 32.7716942,33.6254852 C33.5384132,33.0197668 34.1424948,32.4140484 34.6536409,31.80833 C34.9556817,31.4355802 35.0718512,31.0628304 34.9556817,30.6434869 L34.9092139,30.5968931 C34.5607052,29.781503 32.2605482,27.8012697 32.2373142,27.7779729 C31.8888056,27.4984105 31.540297,27.1955513 31.1453205,26.9392859 C30.9594492,26.8228016 30.7271101,26.6830204 30.4715371,26.6364267 C29.8906894,26.5432392 29.5421807,26.9392859 29.3098416,27.1955513 C29.2866077,27.2188482 29.2401399,27.2654419 29.216906,27.2887388 C29.0775025,27.42852 28.9148652,27.6148949 28.7522278,27.8012697 C28.4734209,28.1274258 27.915807,28.7797379 27.7299358,28.8496285 C27.4511288,28.8962222 26.382369,28.267207 25.8479891,27.8245666 C24.2448493,26.4966455 22.8275808,25.0755369 22.2234992,24.1902562 L22.2002653,24.1669593 C21.247675,22.7924445 21.1547393,22.373101 21.1779732,22.2799135 C21.247675,22.0702418 21.8982244,21.5111171 22.2234992,21.2315548 C22.4093704,21.0684767 22.5952417,20.9053987 22.7346452,20.7656175 C22.7578791,20.7423207 22.8043469,20.6957269 22.8275808,20.6724301 C23.0831538,20.4394615 23.4781303,20.0667117 23.3851946,19.4842901 C23.3387268,19.2280247 23.2225573,18.995056 23.0831538,18.8086811 C22.8275808,18.4126345 22.52554,18.0398847 22.2467331,17.7137286 C22.2002653,17.7137286 20.2253829,15.4073393 19.4121961,15.0578864 L19.3424944,15.0345896 C18.9475179,14.9414021 18.5525414,15.0345896 18.1807989,15.3374488 C17.5767172,15.8499797 16.9726356,16.4556981 16.3685539,17.2244945 C15.8574079,17.8535098 15.3694958,18.5291188 15.1371567,19.344509 C15.067455,19.5308839 14.7654141,20.6025395 15.3694958,22.1168355 C15.4624314,22.3963978 15.9735775,24.213553 17.623185,26.2636769 Z M16.0926574,19.6922356 L16.1157339,19.6460826 C16.3003456,18.9999414 16.7387986,18.3999531 17.1772516,17.8691943 C17.7541634,17.1538236 18.3079987,16.5999883 18.8618341,16.1384588 C18.9772164,16.0461529 19.0695223,16 19.1156753,16 C19.1156753,16 19.1387518,16 19.1387518,16 C19.5541283,16.2307647 20.8464107,17.5692001 21.5387049,18.3999531 C21.8156226,18.7230237 22.0925402,19.0460944 22.3002285,19.3922414 C22.3694579,19.5076238 22.4386873,19.5999297 22.4617638,19.6922356 C22.4848403,19.761465 22.3694579,19.8768474 22.1848461,20.0383827 C22.1386932,20.0845356 22.1156167,20.1076121 22.0694638,20.153765 C21.9540814,20.2691474 21.7925461,20.4076062 21.6079343,20.5691415 C20.9156401,21.1460534 20.4310342,21.6075828 20.2925754,22.0229593 C20.1310401,22.5306417 20.4541107,23.2690888 21.446399,24.6767536 L21.4694755,24.6998301 C22.2540755,25.8305773 23.984811,27.4459303 25.2540169,28.4843716 C25.2770934,28.5074481 27.0770583,29.9612658 27.9770407,29.6843482 C28.4154937,29.5458893 28.8539466,29.0612834 29.4308585,28.3689892 C29.5923938,28.1843774 29.7308526,28.0228421 29.846235,27.9074598 C29.8923879,27.8613068 29.9154644,27.8382304 29.9616173,27.7920774 C30.1231526,27.6305421 30.238535,27.5151597 30.3077644,27.5151597 C30.4000703,27.5382362 30.5154527,27.6074656 30.6077586,27.676695 C30.9539056,27.9074598 31.2769763,28.161301 31.6000469,28.4382186 C32.4307999,29.1535893 33.7692353,30.4458717 34,30.8612482 C34,30.9304777 34,31.0227836 33.8615412,31.1612424 C33.4000117,31.7150777 32.8230999,32.2689131 32.1308057,32.8458249 C31.5769704,33.2842779 31.0000586,33.7227308 30.3539174,33.9073426 L30.3308409,33.9073426 C30.2846879,33.9304191 29.4770114,34.2073367 28.2078054,33.6765779 L28.1616525,33.6535014 C28.138576,33.6535014 26.5693759,33.1688955 24.6540287,31.7843071 C21.884852,29.7997305 19.1849047,26.5921008 18.4233811,25.6459655 C16.808028,23.6613888 16.3464986,21.8845005 16.3464986,21.861424 L16.3234221,21.7921946 C15.7926633,20.5460651 16.0695809,19.7153121 16.0926574,19.6922356 Z" id="Shape-Copy"></path>
            </g>
        </g>
    </g>
</svg>