<?xml version="1.0" encoding="UTF-8"?>
<svg width="24px" height="11px" viewBox="0 0 24 11" version="1.1" xmlns="http://www.w3.org/2000/svg" xmlns:xlink="http://www.w3.org/1999/xlink">
    <!-- Generator: Sketch 51.3 (57544) - http://www.bohemiancoding.com/sketch -->
    <title>Shape Copy 6</title>
    <desc>Created with Sketch.</desc>
    <defs></defs>
    <g id="Page-1" stroke="none" stroke-width="1" fill="none" fill-rule="evenodd">
        <g id="Ecran_1" transform="translate(-1547.000000, -74.000000)" fill="#FFFFFF" fill-rule="nonzero">
            <g id="call" transform="translate(1525.000000, 40.000000)">
                <path d="M26.7631667,42.4036586 C27.5531197,43.3821268 30.3179549,46.6902811 33.2221936,48.7637018 C35.197076,50.1615135 36.7769818,50.6973413 37.0093209,50.7672319 C37.7295721,51.0700911 38.3336538,51.1399817 38.8215659,51.1399817 C39.3559458,51.1399817 39.7044545,51.0467943 39.7973901,51.0002005 C40.6105769,50.7672319 41.2843603,50.254701 41.9116759,49.7654669 C42.6783949,49.1597485 43.2824766,48.5540301 43.7936226,47.9483117 C44.0956634,47.5755619 44.2118329,47.2028121 44.0956634,46.7834686 L44.0491956,46.7368749 C43.7006869,45.9214847 41.4005299,43.9412515 41.377296,43.9179546 C41.0287873,43.6383923 40.6802787,43.3355331 40.2853022,43.0792676 C40.0994309,42.9627833 39.8670918,42.8230021 39.6115188,42.7764084 C39.0306711,42.6832209 38.6821624,43.0792676 38.4498233,43.3355331 C38.4265894,43.3588299 38.3801216,43.4054236 38.3568877,43.4287205 C38.2174842,43.5685017 38.0548469,43.7548766 37.8922095,43.9412515 C37.6134026,44.2674075 37.0557888,44.9197196 36.8699175,44.9896102 C36.5911106,45.036204 35.5223507,44.4071887 34.9879708,43.9645483 C33.384831,42.6366272 31.9675625,41.2155186 31.3634809,40.3302379 L31.340247,40.306941 C30.3876567,38.9324262 30.294721,38.5130827 30.3179549,38.4198952 C30.3876567,38.2102235 31.0382061,37.6510988 31.3634809,37.3715365 C31.5493521,37.2084584 31.7352234,37.0453804 31.8746269,36.9055992 C31.8978608,36.8823024 31.9443286,36.8357086 31.9675625,36.8124118 C32.2231355,36.5794432 32.618112,36.2066934 32.5251764,35.6242718 C32.4787085,35.3680064 32.362539,35.1350377 32.2231355,34.9486629 C31.9675625,34.5526162 31.6655217,34.1798664 31.3867148,33.8537104 C31.340247,33.8537104 29.3653646,31.547321 28.5521778,31.1978681 L28.4824761,31.1745713 C28.0874996,31.0813838 27.6925231,31.1745713 27.3207806,31.4774305 C26.7166989,31.9899614 26.1126173,32.5956798 25.5085356,33.3644763 C24.9973896,33.9934915 24.5094775,34.6691005 24.2771384,35.4844907 C24.2074367,35.6708656 23.9053959,36.7425212 24.5094775,38.2568172 C24.6024131,38.5363795 25.1135592,40.3535348 26.7631667,42.4036586 Z M25.2326391,35.8322173 L25.2557156,35.7860644 C25.4403274,35.1399231 25.8787803,34.5399348 26.3172333,34.009176 C26.8941451,33.2938053 27.4479805,32.73997 28.0018158,32.2784405 C28.1171982,32.1861347 28.209504,32.1399817 28.255657,32.1399817 C28.255657,32.1399817 28.2787335,32.1399817 28.2787335,32.1399817 C28.69411,32.3707464 29.9863924,33.7091818 30.6786866,34.5399348 C30.9556043,34.8630055 31.2325219,35.1860761 31.4402102,35.5322232 C31.5094396,35.6476055 31.578669,35.7399114 31.6017455,35.8322173 C31.624822,35.9014467 31.5094396,36.0168291 31.3248278,36.1783644 C31.2786749,36.2245173 31.2555984,36.2475938 31.2094455,36.2937467 C31.0940631,36.4091291 30.9325278,36.5475879 30.747916,36.7091232 C30.0556218,37.2860351 29.5710159,37.7475645 29.4325571,38.162941 C29.2710218,38.6706234 29.5940924,39.4090705 30.5863807,40.8167353 L30.6094572,40.8398118 C31.3940572,41.970559 33.1247927,43.585912 34.3939987,44.6243533 C34.4170751,44.6474298 36.21704,46.1012475 37.1170224,45.8243299 C37.5554754,45.685871 37.9939284,45.2012651 38.5708402,44.5089709 C38.7323755,44.3243592 38.8708343,44.1628238 38.9862167,44.0474415 C39.0323696,44.0012885 39.0554461,43.9782121 39.101599,43.9320591 C39.2631343,43.7705238 39.3785167,43.6551415 39.4477461,43.6551415 C39.540052,43.6782179 39.6554344,43.7474473 39.7477403,43.8166768 C40.0938873,44.0474415 40.416958,44.3012827 40.7400286,44.5782003 C41.5707816,45.293571 42.909217,46.5858534 43.1399817,47.00123 C43.1399817,47.0704594 43.1399817,47.1627653 43.0015229,47.3012241 C42.5399934,47.8550594 41.9630816,48.4088948 41.2707874,48.9858066 C40.7169521,49.4242596 40.1400403,49.8627125 39.4938991,50.0473243 L39.4708226,50.0473243 C39.4246696,50.0704008 38.6169931,50.3473185 37.3477871,49.8165596 L37.3016342,49.7934831 C37.2785577,49.7934831 35.7093576,49.3088772 33.7940104,47.9242889 C31.0248337,45.9397122 28.3248864,42.7320826 27.5633628,41.7859472 C25.9480097,39.8013706 25.4864803,38.0244822 25.4864803,38.0014057 L25.4634038,37.9321763 C24.932645,36.6860468 25.2095626,35.8552938 25.2326391,35.8322173 Z" id="Shape-Copy-6" transform="translate(34.139982, 41.139982) rotate(134.000000) translate(-34.139982, -41.139982) "></path>
            </g>
        </g>
    </g>
</svg>