<svg xmlns="http://www.w3.org/2000/svg" viewBox="0 0 62.44 58.66"><defs><style>.cls-1{fill:none;}.cls-2{fill:#13110c;}</style></defs><title>Fichier 25</title><g id="Calque_2" data-name="Calque 2"><g id="Calque_1-2" data-name="Calque 1"><polygon class="cls-1" points="1.89 25.94 1.89 55.74 18.45 42.49 1.89 25.94"/><polygon class="cls-1" points="31.22 2.13 21.45 9.46 41 9.46 31.22 2.13"/><polygon class="cls-1" points="53.93 19.16 53.93 29.88 60.06 23.75 53.93 19.16"/><polygon class="cls-1" points="8.52 19.16 2.39 23.75 8.52 29.88 8.52 19.16"/><polygon class="cls-1" points="20.2 43.52 3.65 56.76 58.8 56.76 42.24 43.52 20.2 43.52"/><polygon class="cls-1" points="60.55 55.74 60.55 25.94 43.99 42.49 60.55 55.74"/><path class="cls-2" d="M62.06,22.89l-8.13-6.1V10.41a1,1,0,0,0-1-.95q-8.9,0-8.92-.07L31.79.19a1,1,0,0,0-1.14,0L18.29,9.46H9.46a.94.94,0,0,0-.94.95v6.38l0,0L.38,22.89a1,1,0,0,0-.38.77v34a1.48,1.48,0,0,0,0,.21,1,1,0,0,0,.2.45.9.9,0,0,0,.59.35H61.64a.92.92,0,0,0,.6-.35.87.87,0,0,0,.19-.45.74.74,0,0,0,0-.21v-34A.91.91,0,0,0,62.06,22.89Zm-8.13-3.73,6.13,4.59-6.13,6.13Zm-22.71-17L41,9.46H21.45ZM39.61,26.6l-6.78,6.79a1,1,0,0,1-1.34,0L24.7,26.6a4.73,4.73,0,0,1,0-6.68l.33-.33a4.73,4.73,0,0,1,6.69,0l.44.44.44-.44a4.72,4.72,0,0,1,6.68,0l.34.33A4.72,4.72,0,0,1,39.61,26.6ZM8.52,19.16V29.88L2.39,23.75Z"/></g></g></svg>