<svg xmlns="http://www.w3.org/2000/svg" viewBox="0 0 50.59 56.75"><defs><style>.cls-1{fill:none;}.cls-2{fill:#13110c;}</style></defs><title>Fichier 27</title><g id="Calque_2" data-name="Calque 2"><g id="Calque_1-2" data-name="Calque 1"><polygon class="cls-1" points="20.97 12.34 20.97 7.4 20.97 6.17 18.51 6.17 18.51 14.8 20.97 14.8 20.97 12.34"/><rect class="cls-1" x="23.44" y="8.64" width="2.47" height="2.47"/><ellipse class="cls-1" cx="38.25" cy="9.87" rx="9.87" ry="7.4"/><path class="cls-1" d="M2.47,42A17.27,17.27,0,0,0,7.65,54.29H31.83A17.27,17.27,0,1,0,2.47,42Z"/><path class="cls-1" d="M17.27,17.27H16a1.17,1.17,0,0,0-1.23,1.24v4.32a21,21,0,0,1,4.93-.62,21.15,21.15,0,0,1,4.94.62V18.51a1.18,1.18,0,0,0-1.24-1.24H17.27Z"/><path class="cls-2" d="M26.77,13.57c1.85,3.58,6.3,6.17,11.48,6.17,6.78,0,12.34-4.44,12.34-9.87S45,0,38.25,0c-5.18,0-9.63,2.59-11.48,6.17H23.44V4.94A1.16,1.16,0,0,0,22.21,3.7H17.27A1.16,1.16,0,0,0,16,4.94v3.7h-3.7A1.17,1.17,0,0,0,11.1,9.87a1.17,1.17,0,0,0,1.24,1.23H16v3.71a3.63,3.63,0,0,0-3.7,3.7v5.18A19.67,19.67,0,0,0,0,42,20,20,0,0,0,6.29,56.38a1.13,1.13,0,0,0,.87.37h25a1.13,1.13,0,0,0,.87-.37A19.69,19.69,0,0,0,27,23.69V18.51a3.63,3.63,0,0,0-3.7-3.7V13.57Z"/></g></g></svg>