<svg xmlns="http://www.w3.org/2000/svg" viewBox="0 0 44.74 94.19"><defs><style>.cls-1{fill:#13110c;}</style></defs><title>Fichier 26</title><g id="Calque_2" data-name="Calque 2"><g id="Calque_1-2" data-name="Calque 1"><path class="cls-1" d="M44.74,11.27c-.08-1.12-.21-2.23-.4-3.34-.1-.56-5.27.17-7.24,2.2.82-3,6.6-5.12,6.43-5.73-.33-1.19-1-3.33-1.37-4.4C36,3.55,26.86,9.4,22.72,26.94c-2.64,11.19-2.65,30.67-1.44,39.77,1.63-.78,2.12-7,2.22-8.9.13-2.56.07-6.25.15-6.38,4.84-7.58,10.91-11.49,16-20.21.54-.93-8.09.41-12.72,5.65,3.2-8.1,15.25-10.7,15.64-11.71A33.68,33.68,0,0,0,44.59,17c.12-1-10.44,1-13.73,4.48C35.38,13.58,44.79,12.13,44.74,11.27Z"/><path class="cls-1" d="M8.44,94.19H35.2a1.61,1.61,0,0,0,1.61-1.6V91L43.1,78.74a5.17,5.17,0,0,0,0-4.69c-1.76-3.49-5-9.69-6.71-12a5.13,5.13,0,0,0-4-2H28.53V54.88h1.88a1.62,1.62,0,1,0,0-3.23H13.23a1.62,1.62,0,0,0,0,3.23h1.88v5.19H11.42a5.07,5.07,0,0,0-4.21,2.24C5.53,64.81,2.35,70.7.6,74a5.2,5.2,0,0,0,0,4.79L6.84,91v1.59a1.6,1.6,0,0,0,1.6,1.6Z"/></g></g></svg>