<?xml version="1.0" encoding="UTF-8"?>
<svg width="40px" height="40px" viewBox="0 0 40 40" version="1.1" xmlns="http://www.w3.org/2000/svg" xmlns:xlink="http://www.w3.org/1999/xlink">
    <!-- Generator: Sketch 52.4 (67378) - http://www.bohemiancoding.com/sketch -->
    <title>Son</title>
    <desc>Created with Sketch.</desc>
    <g id="Page-1" stroke="none" stroke-width="1" fill="none" fill-rule="evenodd">
        <g id="Artboard-Copy-53" transform="translate(-1716.000000, -565.000000)">
            <g id="Son" transform="translate(1716.000000, 565.000000)">
                <circle id="Oval" fill="#FFFFFF" opacity="0.172061012" cx="20" cy="20" r="20"></circle>
                <g id="Icon" transform="translate(10.000000, 11.000000)">
                    <path d="M20.8444243,5.15552409 C20.7449277,5.05594965 20.6099147,5 20.4691268,5 C20.3283389,5 20.1933259,5.05594965 20.0938292,5.15552409 L16.9986188,8.24970869 L13.9060606,5.15552409 C13.7719797,5.02148761 13.5765525,4.96914041 13.3933946,5.01820117 C13.2102366,5.06726192 13.067174,5.21027714 13.018097,5.39337437 C12.96902,5.57647159 13.0213845,5.77183401 13.1554654,5.90587048 L16.2506759,9.00005509 L13.1554654,12.0942397 C13.0213845,12.2282762 12.96902,12.4236386 13.018097,12.6067358 C13.067174,12.789833 13.2102366,12.9328483 13.3933946,12.981909 C13.5765525,13.0309698 13.7719797,12.9786226 13.9060606,12.8445861 L16.9986188,9.75040148 L20.0938292,12.8445861 C20.2279101,12.9786226 20.4233373,13.0309698 20.6064952,12.981909 C20.7896531,12.9328483 20.9327158,12.789833 20.9817928,12.6067358 C21.0308698,12.4236386 20.9785053,12.2282762 20.8444243,12.0942397 L17.7492139,9.00005509 L20.8444243,5.90587048 C20.9440318,5.80640676 21,5.67143854 21,5.53069729 C21,5.38995603 20.9440318,5.25498781 20.8444243,5.15552409 Z" id="Path" fill="#FFFFFF"></path>
                    <polygon id="Path-2" stroke="#FFFFFF" points="3.48834684 5.27306681 10.0634457 0.527838417 10.0634457 17.3709408 3.48834684 12.7666236"></polygon>
                    <rect id="Rectangle" stroke="#FFFFFF" x="0.5" y="5.5" width="3" height="7"></rect>
                </g>
            </g>
        </g>
    </g>
</svg>